<?xml version="1.0" encoding="utf-8"?>
<!-- Generator: Adobe Illustrator 24.3.0, SVG Export Plug-In . SVG Version: 6.00 Build 0)  -->
<svg version="1.1" id="Layer_1" xmlns="http://www.w3.org/2000/svg" xmlns:xlink="http://www.w3.org/1999/xlink" x="0px" y="0px"
	 viewBox="0 0 260.8 510.9" style="enable-background:new 0 0 260.8 510.9;" xml:space="preserve">
<style type="text/css">
	.st0{fill:#FFFFFF;}
	.st1{fill:#5C5C5C;}
	.st2{fill:#2B2A29;}
	.st3{opacity:0.5;fill:#2B2A29;enable-background:new    ;}
	.st4{opacity:0.5;fill:#5C5C5C;enable-background:new    ;}
	.st5{fill-rule:evenodd;clip-rule:evenodd;fill:#5C5C5C;}
	.st6{fill-rule:evenodd;clip-rule:evenodd;fill:#2B2A29;}
	.st7{fill-rule:evenodd;clip-rule:evenodd;fill:#DF0920;}
	.st8{fill:#89A835;}
	.st9{fill:#DF0920;stroke:#2B2A29;stroke-width:0.22;stroke-miterlimit:22.93;}
</style>
<path class="st0" d="M260.8,393.2c-0.5,63.2-47.3,110.7-103.9,116.9c-64.2,7-119-38.2-128.1-96.7c-6.5-42,5.9-78,37.5-106.5
	c46-41.5,92.9-82,138.8-123.6c27-24.5,35.7-55.8,26.1-90.7S197.9,35.4,162.3,28C105.8,16.2,53.4,58.5,53,115.7
	c-0.2,27.2,9.9,50.3,30.3,68.6c5.4,4.8,10.9,9.5,16.2,14.4c6.1,5.7,6.7,13.1,1.8,18.8s-12.9,6.2-18.8,0.7
	c-10.2-9.4-21.3-18.2-29.9-28.9C-3.2,120.7,37.3,15.4,124.4,1.6c65.5-10.4,125.4,32.7,135,98.4c5.8,40.2-6.4,75.3-36.7,102.7
	c-46,41.6-92.6,82.4-138.9,123.5c-37.6,33.2-41.1,90.6-7.9,128.2c33.2,37.6,90.6,41.1,128.2,7.9c37.6-33.2,41.1-90.6,7.9-128.2
	c-2.4-2.7-4.9-5.2-7.5-7.6c-5.8-5.2-11.8-10.1-17.3-15.6c-5-4.7-5.3-12.5-0.7-17.6c0,0,0,0,0,0c4.4-5,11.9-6.4,17.1-2
	c16.1,13.4,32.2,26.8,42.5,45.8C255.4,354.3,260.5,373.6,260.8,393.2"/>
<path class="st1" d="M185,112.3c0.5,0,1-0.1,1.4-0.4c0.3-0.3,0.5-0.7,0.5-1.2c0-0.5-0.2-0.9-0.5-1.2c-0.4-0.3-0.9-0.4-1.4-0.4h-1.7
	v3.2H185z M185,108.6c0.7,0,1.4,0.2,1.9,0.6c0.5,0.4,0.7,1,0.7,1.6c0,0.6-0.2,1.2-0.7,1.6c-0.5,0.4-1.2,0.6-1.9,0.6h-1.7v2h-0.7
	v-6.3L185,108.6z"/>
<path class="st1" d="M189.4,111.1c0.1-0.3,0.4-0.6,0.7-0.7c0.3-0.2,0.7-0.3,1.1-0.2v0.6H191c-0.4,0-0.9,0.1-1.2,0.5
	c-0.3,0.4-0.4,0.8-0.4,1.3v2.4h-0.7v-4.8h0.6L189.4,111.1z"/>
<path class="st1" d="M194.2,110.6c-0.4,0-0.8,0.1-1.1,0.4c-0.3,0.3-0.5,0.7-0.5,1.1h3.4c0-0.4-0.2-0.8-0.5-1.1
	C195,110.8,194.6,110.6,194.2,110.6 M196.4,112.7h-4c0,0.5,0.2,0.9,0.6,1.2c0.4,0.3,0.8,0.5,1.3,0.5c0.3,0,0.6,0,0.8-0.2
	c0.2-0.1,0.5-0.3,0.6-0.5l0.4,0.4c-0.2,0.3-0.5,0.5-0.8,0.6c-0.3,0.1-0.7,0.2-1,0.2c-0.4,0-0.9-0.1-1.3-0.3
	c-0.4-0.2-0.7-0.5-0.9-0.9c-0.4-0.8-0.4-1.7,0-2.5c0.2-0.4,0.5-0.7,0.8-0.9c0.7-0.4,1.6-0.4,2.4,0c0.3,0.2,0.6,0.5,0.8,0.9
	c0.2,0.4,0.3,0.8,0.3,1.3L196.4,112.7z"/>
<rect x="197.5" y="112.2" class="st1" width="2.4" height="0.6"/>
<path class="st1" d="M207.7,111.1c0.1-0.3,0.4-0.6,0.7-0.7c0.3-0.2,0.7-0.3,1.1-0.2v0.6h-0.1c-0.4,0-0.9,0.1-1.2,0.5
	c-0.3,0.4-0.4,0.8-0.4,1.3v2.4h-0.6v-4.8h0.6L207.7,111.1z M203.3,114.4c0.3,0,0.6-0.1,0.9-0.2c0.3-0.2,0.5-0.4,0.6-0.6
	c0.3-0.6,0.3-1.3,0-1.9c-0.1-0.3-0.4-0.5-0.6-0.7c-0.3-0.2-0.6-0.2-0.9-0.2c-0.3,0-0.6,0.1-0.9,0.2c-0.3,0.2-0.5,0.4-0.6,0.7
	c-0.3,0.6-0.3,1.3,0,1.9c0.1,0.3,0.4,0.5,0.6,0.6C202.7,114.3,203,114.4,203.3,114.4 M203.3,114.9c-0.4,0-0.9-0.1-1.2-0.3
	c-0.4-0.2-0.7-0.5-0.9-0.9c-0.4-0.8-0.4-1.7,0-2.5c0.2-0.4,0.5-0.7,0.9-0.9c0.4-0.2,0.8-0.3,1.2-0.3c0.4,0,0.9,0.1,1.2,0.3
	c0.4,0.2,0.7,0.5,0.9,0.9c0.4,0.8,0.4,1.7,0,2.5c-0.2,0.4-0.5,0.7-0.9,0.9C204.2,114.8,203.8,114.9,203.3,114.9z"/>
<path class="st1" d="M222.8,111.1c0.1-0.3,0.4-0.6,0.7-0.7c0.3-0.2,0.7-0.3,1.1-0.2v0.6h-0.2c-0.4,0-0.9,0.1-1.2,0.5
	c-0.3,0.4-0.5,0.8-0.4,1.3v2.4h-0.6v-4.8h0.6V111.1z M218.5,110.6c-0.4,0-0.8,0.1-1.1,0.4c-0.3,0.3-0.5,0.7-0.5,1.1h3.4
	c0-0.4-0.2-0.8-0.5-1.1C219.4,110.8,219,110.6,218.5,110.6 M220.8,112.7h-4c0,0.5,0.2,0.9,0.6,1.2c0.4,0.3,0.8,0.5,1.3,0.5
	c0.3,0,0.6,0,0.8-0.2c0.2-0.1,0.5-0.3,0.6-0.5l0.4,0.4c-0.2,0.3-0.5,0.5-0.8,0.6c-0.3,0.1-0.7,0.2-1,0.2c-0.5,0-0.9-0.1-1.3-0.3
	c-0.4-0.2-0.7-0.5-0.9-0.9c-0.4-0.8-0.4-1.7,0-2.5c0.2-0.4,0.5-0.7,0.8-0.9c0.7-0.4,1.6-0.4,2.4,0c0.3,0.2,0.6,0.5,0.8,0.9
	c0.2,0.4,0.3,0.8,0.3,1.3L220.8,112.7z M212.5,114.4c0.3,0,0.6-0.1,0.9-0.2c0.3-0.2,0.5-0.4,0.6-0.6c0.3-0.6,0.3-1.3,0-1.9
	c-0.1-0.3-0.4-0.5-0.6-0.7c-0.3-0.2-0.6-0.2-0.9-0.2c-0.3,0-0.6,0.1-0.9,0.2c-0.3,0.2-0.5,0.4-0.6,0.7c-0.3,0.6-0.3,1.3,0,1.9
	c0.1,0.3,0.4,0.5,0.6,0.6C211.9,114.3,212.2,114.4,212.5,114.4 M214.9,108.2v6.7h-0.6v-0.9c-0.2,0.3-0.4,0.6-0.8,0.7
	c-0.3,0.2-0.7,0.3-1.1,0.2c-0.4,0-0.8-0.1-1.2-0.3c-0.4-0.2-0.7-0.5-0.9-0.9c-0.2-0.4-0.3-0.8-0.3-1.3c0-0.4,0.1-0.9,0.3-1.3
	c0.2-0.4,0.5-0.7,0.9-0.9c0.4-0.2,0.8-0.3,1.2-0.3c0.3,0,0.7,0.1,1,0.2c0.3,0.2,0.6,0.4,0.8,0.7v-2.9L214.9,108.2z"/>
<polygon class="st1" points="227.3,107.3 227.9,107.3 224.9,115.8 224.3,115.8 "/>
<path class="st1" d="M200.5,122c0.1-0.3,0.4-0.6,0.7-0.7c0.3-0.2,0.7-0.3,1.1-0.2v0.6h-0.1c-0.4,0-0.9,0.1-1.2,0.5
	c-0.3,0.4-0.4,0.8-0.4,1.3v2.4h-0.6v-4.8h0.6V122z M195.2,125.3c0.5,0,0.9-0.1,1.4-0.3c0.4-0.2,0.7-0.5,1-0.9
	c0.2-0.4,0.4-0.9,0.4-1.3c0-0.5-0.1-0.9-0.4-1.4c-0.2-0.4-0.5-0.7-1-0.9c-0.4-0.2-0.9-0.3-1.4-0.3c-0.5,0-0.9,0.1-1.4,0.3
	c-0.4,0.2-0.8,0.5-1,0.9c-0.2,0.4-0.4,0.9-0.4,1.4c0,0.5,0.1,0.9,0.4,1.3c0.2,0.4,0.6,0.7,1,0.9
	C194.3,125.2,194.8,125.3,195.2,125.3 M195.2,125.9c-0.6,0-1.2-0.1-1.7-0.4c-0.5-0.3-0.9-0.7-1.2-1.1c-0.3-0.5-0.4-1.1-0.4-1.6
	c0-0.6,0.1-1.1,0.4-1.6c0.3-0.5,0.7-0.9,1.2-1.2c1.1-0.5,2.3-0.5,3.4,0c0.5,0.3,0.9,0.7,1.2,1.1c0.3,0.5,0.4,1.1,0.4,1.7
	c0,0.6-0.1,1.1-0.4,1.6c-0.3,0.5-0.7,0.9-1.2,1.2C196.4,125.8,195.8,125.9,195.2,125.9z"/>
<path class="st1" d="M215.7,122c0.1-0.3,0.4-0.6,0.7-0.7c0.3-0.2,0.7-0.3,1.1-0.2v0.6h-0.2c-0.4,0-0.9,0.2-1.2,0.5
	c-0.3,0.4-0.5,0.8-0.4,1.3v2.4H215v-4.8h0.6L215.7,122z M211.4,121.6c-0.4,0-0.8,0.1-1.1,0.4c-0.3,0.3-0.5,0.7-0.5,1.1h3.4
	c0-0.4-0.2-0.8-0.5-1.1C212.3,121.7,211.9,121.6,211.4,121.6 M213.7,123.6h-4c0,0.5,0.2,0.9,0.6,1.2c0.4,0.3,0.8,0.5,1.3,0.5
	c0.3,0,0.6,0,0.8-0.2c0.2-0.1,0.5-0.3,0.6-0.5l0.4,0.4c-0.2,0.3-0.5,0.5-0.8,0.6c-0.8,0.3-1.6,0.3-2.3-0.1c-0.4-0.2-0.7-0.5-0.9-0.9
	c-0.4-0.8-0.4-1.7,0-2.5c0.2-0.4,0.5-0.7,0.8-0.9c0.4-0.2,0.8-0.3,1.2-0.3c0.4,0,0.8,0.1,1.2,0.3c0.4,0.2,0.6,0.5,0.8,0.9
	c0.2,0.4,0.3,0.8,0.3,1.3L213.7,123.6z M205.4,125.3c0.3,0,0.6-0.1,0.9-0.2c0.3-0.2,0.5-0.4,0.6-0.6c0.3-0.6,0.3-1.3,0-1.9
	c-0.1-0.3-0.4-0.5-0.6-0.7c-0.3-0.2-0.6-0.2-0.9-0.2c-0.6,0-1.2,0.3-1.5,0.9c-0.3,0.6-0.3,1.3,0,1.9c0.1,0.3,0.4,0.5,0.6,0.6
	C204.8,125.2,205.1,125.3,205.4,125.3 M207.8,119.1v6.7h-0.6v-1c-0.2,0.3-0.4,0.6-0.8,0.7c-0.3,0.2-0.7,0.3-1.1,0.2
	c-0.4,0-0.8-0.1-1.2-0.3c-0.4-0.2-0.7-0.5-0.9-0.9c-0.4-0.8-0.4-1.7,0-2.5c0.2-0.4,0.5-0.7,0.9-0.9c0.4-0.2,0.8-0.3,1.2-0.3
	c0.4,0,0.7,0.1,1,0.2c0.3,0.2,0.6,0.4,0.8,0.7v-2.9L207.8,119.1z"/>
<path class="st2" d="M74.9,120c-0.4,0-0.9-0.1-1.3-0.3c-0.4-0.2-0.7-0.5-0.9-0.9c-0.4-0.8-0.4-1.7,0-2.5c0.2-0.4,0.5-0.7,0.9-0.9
	c0.4-0.2,0.8-0.3,1.3-0.3c0.4,0,0.8,0.1,1.1,0.2c0.3,0.2,0.6,0.4,0.8,0.7l-0.5,0.3c-0.1-0.2-0.3-0.4-0.6-0.5
	c-0.2-0.1-0.5-0.2-0.8-0.2c-0.3,0-0.6,0.1-0.9,0.2c-0.3,0.2-0.5,0.4-0.6,0.7c-0.2,0.3-0.2,0.7-0.2,1c0,0.3,0.1,0.7,0.2,1
	c0.1,0.3,0.4,0.5,0.6,0.6c0.3,0.2,0.6,0.2,0.9,0.2c0.3,0,0.5-0.1,0.8-0.2c0.2-0.1,0.4-0.3,0.6-0.5l0.5,0.3c-0.2,0.3-0.5,0.5-0.8,0.7
	C75.7,119.9,75.3,120,74.9,120 M69.8,120c-0.4,0-0.8-0.1-1.1-0.2c-0.3-0.1-0.6-0.2-0.8-0.4l0.3-0.5c0.2,0.2,0.5,0.3,0.8,0.4
	c0.3,0.1,0.6,0.2,0.9,0.2c0.3,0,0.7,0,1-0.2c0.2-0.1,0.3-0.3,0.3-0.6c0-0.2-0.1-0.3-0.2-0.4c-0.1-0.1-0.3-0.2-0.4-0.2
	c-0.2-0.1-0.5-0.1-0.7-0.1c-0.3,0-0.6-0.1-0.9-0.2c-0.2-0.1-0.4-0.2-0.6-0.4c-0.2-0.2-0.3-0.5-0.2-0.8c0-0.4,0.2-0.8,0.5-1
	c0.4-0.3,0.9-0.4,1.4-0.4c0.3,0,0.6,0,0.9,0.1c0.3,0.1,0.5,0.2,0.8,0.3l-0.3,0.5c-0.4-0.3-0.9-0.4-1.4-0.4c-0.3,0-0.6,0.1-0.9,0.2
	c-0.2,0.1-0.3,0.3-0.3,0.6c0,0.2,0.1,0.3,0.2,0.4c0.1,0.1,0.3,0.2,0.4,0.2c0.2,0,0.4,0.1,0.7,0.2c0.3,0.1,0.6,0.1,0.9,0.2
	c0.2,0.1,0.4,0.2,0.6,0.4c0.2,0.2,0.3,0.5,0.2,0.7c0,0.4-0.2,0.8-0.5,1C70.8,119.9,70.3,120,69.8,120 M66.4,114.1
	c-0.1,0-0.2,0-0.3-0.1c-0.1-0.1-0.1-0.2-0.1-0.3c0-0.1,0-0.2,0.1-0.3c0.1-0.1,0.2-0.1,0.3-0.1c0.1,0,0.2,0,0.3,0.1
	c0.1,0.1,0.1,0.2,0.1,0.3c0,0.1,0,0.3-0.1,0.3C66.7,114.1,66.5,114.2,66.4,114.1 M66.1,115.1h0.6v4.8h-0.6V115.1z M61.3,119.3
	c0.5,0,1-0.1,1.4-0.3c0.4-0.2,0.8-0.5,1-0.9c0.2-0.4,0.4-0.9,0.4-1.3c0-0.5-0.1-0.9-0.4-1.3c-0.2-0.4-0.6-0.7-1-0.9
	c-0.5-0.2-0.9-0.3-1.4-0.3h-1.9v5.2H61.3z M58.8,113.6h2.6c0.6,0,1.2,0.1,1.8,0.4c0.5,0.3,0.9,0.6,1.2,1.1c0.6,1,0.6,2.3,0,3.3
	c-0.3,0.5-0.7,0.9-1.2,1.1c-0.6,0.3-1.2,0.4-1.8,0.4h-2.6V113.6z"/>
<path class="st2" d="M79.9,119.4c0.3,0,0.6-0.1,0.9-0.2c0.3-0.2,0.5-0.4,0.6-0.6c0.3-0.6,0.3-1.3,0-1.9c-0.1-0.3-0.4-0.5-0.6-0.7
	c-0.3-0.2-0.6-0.2-0.9-0.2c-0.3,0-0.6,0.1-0.9,0.2c-0.3,0.2-0.5,0.4-0.6,0.7c-0.3,0.6-0.3,1.3,0,1.9c0.1,0.3,0.4,0.5,0.6,0.6
	C79.3,119.3,79.6,119.4,79.9,119.4 M79.9,120c-0.4,0-0.9-0.1-1.2-0.3c-0.4-0.2-0.7-0.5-0.9-0.9c-0.4-0.8-0.4-1.7,0-2.5
	c0.2-0.4,0.5-0.7,0.9-0.9c0.4-0.2,0.8-0.3,1.2-0.3c0.4,0,0.9,0.1,1.2,0.3c0.4,0.2,0.7,0.5,0.9,0.9c0.4,0.8,0.4,1.7,0,2.5
	c-0.2,0.4-0.5,0.7-0.9,0.9C80.7,119.9,80.3,120,79.9,120z"/>
<polygon class="st2" points="87.5,115.2 85.4,119.9 84.7,119.9 82.6,115.2 83.3,115.2 85,119.2 86.8,115.2 "/>
<path class="st2" d="M94.3,116.1c0.1-0.3,0.4-0.6,0.7-0.7c0.3-0.2,0.7-0.3,1.1-0.2v0.6H96c-0.4,0-0.9,0.1-1.2,0.5
	c-0.3,0.4-0.4,0.8-0.4,1.3v2.4h-0.6v-4.8h0.6V116.1z M90.1,115.7c-0.4,0-0.8,0.1-1.1,0.4c-0.3,0.3-0.5,0.7-0.5,1.1h3.4
	c0-0.4-0.2-0.8-0.5-1.1C90.9,115.8,90.5,115.7,90.1,115.7 M92.4,117.7h-4c0,0.5,0.2,0.9,0.6,1.2c0.4,0.3,0.8,0.5,1.3,0.5
	c0.3,0,0.6-0.1,0.8-0.2c0.2-0.1,0.5-0.3,0.6-0.5l0.4,0.4c-0.2,0.3-0.5,0.5-0.8,0.6c-0.3,0.1-0.7,0.2-1,0.2c-0.5,0-0.9-0.1-1.3-0.3
	c-0.4-0.2-0.7-0.5-0.9-0.9c-0.4-0.8-0.4-1.7,0-2.5c0.2-0.4,0.5-0.7,0.8-0.9c0.7-0.4,1.6-0.4,2.4,0c0.3,0.2,0.6,0.5,0.8,0.9
	c0.2,0.4,0.3,0.8,0.3,1.3L92.4,117.7z"/>
<path class="st3" d="M53,62.1L52.8,72l-0.2-0.2l-0.2-0.2l-0.2-0.2l-0.2-0.2L51.9,71l-0.2-0.2l-0.2-0.2l-0.2-0.2l-0.2-0.1l-0.2-0.1
	l-0.2-0.1l-0.2-0.1l-0.2-0.1l-0.2-0.1l-0.2-0.1l-0.2-0.1l-0.2-0.1l-0.2-0.1L49,69.2l-0.2-0.1l-0.2-0.1L48.3,69L48,68.9h-0.2h-0.2
	h-0.2H47h-0.3h-1L53,62.1z M51.7,66.5l-6.5,14.1l-1.2-0.5L50.5,66L51.7,66.5z"/>
<path class="st4" d="M225.8,54.1l-8.9-4.3l0.3-0.1l0.3-0.1l0.2-0.1l0.2-0.1l0.2-0.1l0.2-0.1l0.2-0.1l0.2-0.1l0.2-0.1l0.2-0.1
	l0.2-0.1l0.2-0.1l0.2-0.1l0.2-0.1l0.2-0.1l0.2-0.2l0.2-0.2l0.2-0.2l0.2-0.2l0.2-0.2l0.2-0.2l0.2-0.2l0.1-0.2l0.1-0.2l0.1-0.2
	l0.1-0.2l0.1-0.2l0.1-0.2l0.1-0.2l0.1-0.2l0.1-0.2l0.1-0.2L225.8,54.1z M222.3,51.1l-10.2-11.7l1-0.9l10.2,11.7L222.3,51.1z"/>
<path class="st4" d="M211.6,194.3l3.2-9.3l0.1,0.2l0.1,0.2l0.1,0.2l0.1,0.2l0.1,0.2l0.1,0.2l0.1,0.2l0.1,0.2l0.1,0.2l0.1,0.2
	l0.1,0.2l0.2,0.2l0.2,0.2l0.2,0.2l0.2,0.2l0.2,0.2l0.2,0.2l0.2,0.2l0.2,0.1l0.2,0.1l0.2,0.1l0.2,0.1l0.2,0.1l0.2,0.1l0.2,0.1
	l0.2,0.1l0.2,0.1l0.2,0.1l0.2,0.1l0.2,0.1l0.3,0.1l0.3,0.1L211.6,194.3z M214.2,190.6l10.5-11.5l1,0.9l-10.5,11.5L214.2,190.6z"/>
<path class="st3" d="M44.4,366.3l-0.6-9.8l0.2,0.2l0.2,0.2l0.2,0.2l0.2,0.2l0.2,0.2l0.2,0.2l0.2,0.2l0.2,0.2l0.2,0.1l0.2,0.1
	l0.2,0.1l0.2,0.1l0.2,0.1l0.2,0.1l0.2,0.1l0.2,0.1l0.2,0.1l0.2,0.1l0.2,0.1l0.2,0.1l0.2,0h0.2h0.2h0.2h0.2h1.3h0.3h0.3L44.4,366.3z
	 M45.4,361.9l5.3-14.6l1.2,0.4l-5.3,14.6L45.4,361.9z"/>
<path class="st4" d="M238.5,354.9l7.4,6.5h-0.5h-0.3h-0.2h-0.3h-0.2h-0.2l-0.2,0h-0.2l-0.2,0.1l-0.2,0.1l-0.2,0.1l-0.2,0.1l-0.2,0.1
	l-0.2,0.1L242,362l-0.2,0.1l-0.2,0.1l-0.2,0.1l-0.2,0.1l-0.2,0.1l-0.2,0.1l-0.2,0.2l-0.2,0.2l-0.2,0.2l-0.2,0.2l-0.2,0.2l-0.2,0.2
	l-0.2,0.2l-0.2,0.2l-0.2,0.2l-0.2,0.2L238.5,354.9z M241,358.8l6.7,14l-1.2,0.6l-6.7-14L241,358.8z"/>
<polygon class="st1" points="209.4,398 209.4,398.6 204.9,398.6 204.9,392.2 209.3,392.2 209.3,392.8 205.6,392.8 205.6,395.1 
	208.9,395.1 208.9,395.6 205.6,395.6 205.6,398 "/>
<path class="st1" d="M216.8,394.8c0.1-0.3,0.4-0.6,0.7-0.7c0.3-0.2,0.7-0.3,1.1-0.2v0.6h-0.2c-0.4,0-0.9,0.2-1.2,0.5
	c-0.3,0.4-0.4,0.8-0.4,1.3v2.4h-0.6v-4.8h0.6V394.8z M212.3,398.1c0.3,0,0.7-0.1,0.9-0.2c0.3-0.2,0.5-0.4,0.6-0.7v-0.8h-1.5
	c-0.8,0-1.2,0.3-1.2,0.8c0,0.3,0.1,0.5,0.3,0.7C211.6,398,211.9,398.1,212.3,398.1 M212.5,393.8c0.5,0,1,0.1,1.4,0.5
	c0.4,0.4,0.5,0.9,0.5,1.4v3h-0.6v-0.8c-0.1,0.3-0.4,0.5-0.6,0.6c-0.3,0.1-0.7,0.2-1,0.2c-0.5,0-0.9-0.1-1.3-0.4
	c-0.3-0.2-0.5-0.6-0.5-1c0-0.4,0.1-0.8,0.4-1c0.4-0.3,0.9-0.4,1.4-0.4h1.5v-0.3c0-0.3-0.1-0.7-0.4-0.9c-0.3-0.2-0.6-0.3-1-0.3
	c-0.3,0-0.6,0.1-0.9,0.2c-0.3,0.1-0.5,0.2-0.7,0.4l-0.3-0.5c0.3-0.2,0.5-0.4,0.9-0.5C211.7,393.9,212.1,393.8,212.5,393.8
	L212.5,393.8z"/>
<path class="st1" d="M222.1,393.8c0.5,0,1,0.2,1.4,0.5c0.4,0.4,0.6,1,0.5,1.5v2.8h-0.6v-2.7c0-0.4-0.1-0.8-0.4-1.1
	c-0.3-0.3-0.7-0.4-1.1-0.4c-0.4,0-0.9,0.1-1.2,0.5c-0.3,0.3-0.5,0.8-0.5,1.3v2.5h-0.6v-4.8h0.6v0.9c0.2-0.3,0.4-0.5,0.7-0.7
	C221.3,393.9,221.7,393.8,222.1,393.8"/>
<polygon class="st1" points="199.5,403.2 200.2,403.2 200.2,408.9 203.7,408.9 203.7,409.5 199.5,409.5 "/>
<path class="st1" d="M206.6,409c0.3,0,0.6-0.1,0.9-0.2c0.3-0.2,0.5-0.4,0.6-0.7c0.2-0.3,0.2-0.7,0.2-1c0-0.3-0.1-0.7-0.2-1
	c-0.1-0.3-0.4-0.5-0.6-0.7c-0.3-0.1-0.6-0.2-0.9-0.2c-0.3,0-0.6,0.1-0.9,0.2c-0.3,0.2-0.5,0.4-0.6,0.7c-0.2,0.3-0.2,0.7-0.2,1
	c0,0.3,0.1,0.7,0.2,1c0.1,0.3,0.4,0.5,0.6,0.7C205.9,408.9,206.3,409,206.6,409 M206.6,409.6c-0.4,0-0.9-0.1-1.2-0.3
	c-0.4-0.2-0.7-0.5-0.9-0.9c-0.2-0.4-0.3-0.8-0.3-1.2c0-0.4,0.1-0.9,0.3-1.2c0.2-0.4,0.5-0.7,0.9-0.9c0.8-0.4,1.7-0.4,2.5,0
	c0.4,0.2,0.7,0.5,0.9,0.9c0.2,0.4,0.3,0.8,0.3,1.2c0,0.4-0.1,0.9-0.3,1.2c-0.2,0.4-0.5,0.7-0.9,0.9
	C207.4,409.5,207,409.6,206.6,409.6z"/>
<path class="st1" d="M214.2,404.8l-2.4,5.3c-0.1,0.4-0.4,0.7-0.7,1c-0.3,0.2-0.6,0.3-0.9,0.3c-0.2,0-0.4,0-0.6-0.1
	c-0.2-0.1-0.4-0.2-0.5-0.3l0.3-0.5c0.2,0.2,0.5,0.4,0.9,0.4c0.2,0,0.4-0.1,0.6-0.2c0.2-0.2,0.3-0.4,0.4-0.6l0.2-0.5l-2.1-4.8h0.7
	l1.8,4l1.8-4L214.2,404.8z"/>
<path class="st1" d="M225.2,409.2c-0.1,0.1-0.3,0.2-0.5,0.2c-0.2,0.1-0.4,0.1-0.6,0.1c-0.7,0.1-1.3-0.4-1.4-1.1c0-0.1,0-0.2,0-0.3
	v-2.9H222v-0.5h0.8v-1h0.6v1h1.5v0.5h-1.5v2.8c0,0.2,0.1,0.5,0.2,0.6c0.2,0.2,0.4,0.2,0.6,0.2c0.1,0,0.3,0,0.4-0.1
	c0.1,0,0.2-0.1,0.3-0.2L225.2,409.2z M220.3,402.8h0.6v6.7h-0.6V402.8z M216.4,409.1c0.3,0,0.7-0.1,0.9-0.2c0.3-0.2,0.5-0.4,0.6-0.7
	v-0.8h-1.5c-0.8,0-1.2,0.3-1.2,0.8c0,0.3,0.1,0.5,0.3,0.7C215.7,409,216,409.1,216.4,409.1 M216.6,404.7c0.5,0,1,0.1,1.4,0.5
	c0.4,0.4,0.5,0.9,0.5,1.4v2.9h-0.6v-0.7c-0.1,0.3-0.4,0.5-0.6,0.6c-0.3,0.1-0.7,0.2-1,0.2c-0.5,0-0.9-0.1-1.3-0.4
	c-0.3-0.2-0.5-0.6-0.5-1c0-0.4,0.1-0.8,0.4-1c0.4-0.3,0.9-0.4,1.4-0.4h1.5v-0.3c0-0.4-0.1-0.7-0.4-1c-0.3-0.2-0.6-0.3-1-0.3
	c-0.3,0-0.6,0-0.9,0.1c-0.3,0.1-0.5,0.2-0.7,0.4l-0.3-0.5c0.3-0.2,0.6-0.4,0.9-0.5C215.9,404.7,216.2,404.7,216.6,404.7z"/>
<path class="st1" d="M230.3,404.8l-2.4,5.3c-0.1,0.4-0.4,0.7-0.7,1c-0.3,0.2-0.6,0.3-0.9,0.3c-0.2,0-0.4,0-0.6-0.1
	c-0.2-0.1-0.4-0.2-0.5-0.3l0.3-0.5c0.2,0.2,0.5,0.4,0.9,0.4c0.2,0,0.4-0.1,0.6-0.2c0.2-0.2,0.3-0.4,0.4-0.6l0.2-0.5l-2.1-4.8h0.7
	l1.8,4l1.8-4L230.3,404.8z"/>
<path class="st2" d="M60.4,401.5c0.5,0,1-0.1,1.4-0.4c0.3-0.3,0.5-0.7,0.5-1.2c0-0.5-0.2-0.9-0.5-1.2c-0.4-0.3-0.9-0.4-1.4-0.4h-1.7
	v3.2H60.4z M60.4,397.7c0.7,0,1.4,0.2,1.9,0.6c0.5,0.4,0.7,1,0.7,1.6c0,0.6-0.2,1.2-0.7,1.6c-0.5,0.4-1.2,0.6-1.9,0.6h-1.7v2H58
	v-6.3H60.4z"/>
<path class="st2" d="M65.7,403.6c0.3,0,0.7-0.1,0.9-0.2c0.3-0.2,0.5-0.4,0.6-0.7v-0.8h-1.5c-0.8,0-1.2,0.3-1.2,0.8
	c0,0.3,0.1,0.5,0.3,0.7C65.1,403.5,65.4,403.6,65.7,403.6 M65.9,399.2c0.5,0,1,0.1,1.4,0.5c0.4,0.4,0.5,0.9,0.5,1.4v3h-0.6v-0.7
	c-0.1,0.3-0.4,0.5-0.6,0.6c-0.3,0.1-0.7,0.2-1,0.2c-0.5,0-0.9-0.1-1.3-0.4c-0.3-0.2-0.5-0.6-0.5-1c0-0.4,0.1-0.8,0.4-1
	c0.4-0.3,0.9-0.4,1.4-0.4h1.5v-0.3c0-0.3-0.1-0.7-0.4-0.9c-0.3-0.2-0.6-0.3-1-0.3c-0.3,0-0.6,0.1-0.9,0.2c-0.3,0.1-0.5,0.2-0.7,0.4
	l-0.3-0.5c0.3-0.2,0.5-0.4,0.9-0.5C65.2,399.3,65.5,399.2,65.9,399.2L65.9,399.2z"/>
<path class="st2" d="M73.5,399.3l-2.4,5.3c-0.1,0.4-0.4,0.7-0.7,1c-0.3,0.2-0.6,0.3-0.9,0.3c-0.2,0-0.4,0-0.6-0.1
	c-0.2-0.1-0.4-0.2-0.5-0.3l0.3-0.5c0.2,0.2,0.5,0.4,0.9,0.4c0.2,0,0.4-0.1,0.6-0.2c0.2-0.2,0.3-0.4,0.4-0.6l0.2-0.5l-2.1-4.8h0.7
	l1.8,4l1.8-4L73.5,399.3z"/>
<path class="st5" d="M246.3,118.1c1.4-1.4,3.7-1.4,5.2,0c0,0,0,0,0,0c0.2,0.2,0.5,0.1,0.7-0.1c0.2-0.2,0.2-0.4,0-0.6
	c-1.8-1.8-4.7-1.8-6.6,0c-0.2,0.2-0.1,0.5,0.1,0.7C245.8,118.3,246.1,118.3,246.3,118.1"/>
<path class="st5" d="M248.8,119.3c0.8,0,1.4,0.6,1.4,1.4c0,0.8-0.6,1.4-1.4,1.4c-0.8,0-1.4-0.6-1.4-1.4c0,0,0,0,0,0
	C247.5,120,248.1,119.3,248.8,119.3L248.8,119.3"/>
<path class="st5" d="M248.8,119.8c0.5,0,0.9,0.4,0.9,0.9s-0.4,0.9-0.9,0.9c-0.5,0-0.9-0.4-0.9-0.9c0,0,0,0,0,0
	C248,120.2,248.4,119.8,248.8,119.8L248.8,119.8 M248.8,118.8c-1,0-1.9,0.8-1.9,1.9s0.8,1.9,1.9,1.9s1.9-0.8,1.9-1.9c0,0,0,0,0,0
	C250.7,119.7,249.9,118.8,248.8,118.8L248.8,118.8z"/>
<path class="st5" d="M246.3,403.3c1.4-1.4,3.7-1.4,5.2,0c0,0,0,0,0,0c0.2,0.2,0.5,0.2,0.7,0.1c0.2-0.2,0.2-0.5,0.1-0.7
	c0,0,0,0-0.1-0.1c-1.8-1.8-4.7-1.8-6.6,0c-0.2,0.2-0.2,0.5,0,0.7C245.8,403.5,246.1,403.5,246.3,403.3"/>
<path class="st5" d="M248.9,404.5c0.8,0,1.4,0.6,1.4,1.4s-0.6,1.4-1.4,1.4s-1.4-0.6-1.4-1.4S248.2,404.5,248.9,404.5L248.9,404.5"/>
<path class="st5" d="M248.9,405c0.5,0,0.9,0.4,0.9,0.9s-0.4,0.9-0.9,0.9c-0.5,0-0.9-0.4-0.9-0.9S248.4,405,248.9,405L248.9,405
	 M248.9,404c-1,0-1.9,0.8-1.9,1.9s0.8,1.9,1.9,1.9s1.9-0.8,1.9-1.9l0,0C250.8,404.9,249.9,404.1,248.9,404L248.9,404z"/>
<path class="st6" d="M38.3,403.3c1.4-1.4,3.7-1.4,5.2,0c0,0,0,0,0,0c0.2,0.2,0.5,0.2,0.7,0.1c0.2-0.2,0.2-0.5,0.1-0.7
	c0,0,0,0-0.1-0.1c-1.8-1.8-4.7-1.8-6.6,0c-0.2,0.2-0.1,0.5,0.1,0.7C37.9,403.5,38.1,403.5,38.3,403.3"/>
<path class="st6" d="M40.9,404.5c0.8,0,1.4,0.6,1.4,1.4c0,0.8-0.6,1.4-1.4,1.4c-0.8,0-1.4-0.6-1.4-1.4S40.1,404.5,40.9,404.5
	C40.9,404.5,40.9,404.5,40.9,404.5"/>
<path class="st6" d="M40.9,405c0.5,0,0.9,0.4,0.9,0.9c0,0.5-0.4,0.9-0.9,0.9s-0.9-0.4-0.9-0.9S40.4,405,40.9,405L40.9,405 M40.9,404
	c-1,0-1.9,0.8-1.9,1.9c0,1,0.8,1.9,1.9,1.9c1,0,1.9-0.8,1.9-1.9l0,0C42.7,404.9,41.9,404.1,40.9,404L40.9,404z"/>
<path class="st6" d="M36.4,401.4c2.5-2.5,6.6-2.5,9.1,0c0,0,0,0,0,0c0.2,0.2,0.5,0.2,0.7,0.1c0.2-0.2,0.2-0.5,0.1-0.7
	c0,0,0,0-0.1-0.1c-2.9-2.9-7.6-2.9-10.5,0c0,0,0,0,0,0c-0.2,0.2-0.2,0.5-0.1,0.7C35.8,401.6,36.1,401.6,36.4,401.4
	C36.3,401.4,36.3,401.4,36.4,401.4"/>
<path class="st6" d="M34.4,399.4c3.6-3.6,9.4-3.6,13,0c0.2,0.2,0.5,0.2,0.7,0.1c0.2-0.2,0.2-0.5,0.1-0.7c0,0,0,0-0.1-0.1
	c-4-4-10.4-4-14.4,0c-0.2,0.2-0.1,0.5,0.1,0.7C33.9,399.6,34.2,399.6,34.4,399.4"/>
<path class="st6" d="M37.2,118.1c1.4-1.4,3.7-1.4,5.2,0c0,0,0,0,0,0c0.2,0.2,0.5,0.1,0.7-0.1c0.2-0.2,0.2-0.4,0-0.6
	c-1.8-1.8-4.7-1.8-6.5,0c0,0,0,0,0,0c-0.2,0.2-0.2,0.5,0,0.7c0,0,0,0,0,0C36.7,118.3,37,118.3,37.2,118.1"/>
<path class="st6" d="M39.8,119.3c0.8,0,1.4,0.6,1.4,1.4c0,0.8-0.6,1.4-1.4,1.4c-0.8,0-1.4-0.6-1.4-1.4c0,0,0,0,0,0
	C38.4,120,39,119.3,39.8,119.3C39.8,119.3,39.8,119.3,39.8,119.3"/>
<path class="st6" d="M39.8,119.8c0.5,0,0.9,0.4,0.9,0.9c0,0.5-0.4,0.9-0.9,0.9s-0.9-0.4-0.9-0.9c0,0,0,0,0,0
	C38.9,120.2,39.3,119.8,39.8,119.8L39.8,119.8 M39.8,118.8c-1,0-1.9,0.8-1.9,1.9c0,1,0.8,1.9,1.9,1.9c1,0,1.9-0.8,1.9-1.9
	c0,0,0,0,0,0C41.6,119.7,40.8,118.8,39.8,118.8L39.8,118.8z"/>
<path class="st6" d="M35.2,116.2c2.5-2.5,6.6-2.5,9.1,0c0.2,0.2,0.5,0.2,0.7,0.1c0.2-0.2,0.2-0.5,0.1-0.7c0,0,0,0-0.1-0.1
	c-2.9-2.9-7.6-2.9-10.5,0c-0.2,0.2-0.2,0.5-0.1,0.7C34.7,116.4,35,116.4,35.2,116.2C35.2,116.2,35.2,116.2,35.2,116.2"/>
<path class="st6" d="M33.3,114.2c3.6-3.6,9.4-3.6,13,0c0,0,0,0,0,0c0.2,0.2,0.5,0.1,0.7-0.1c0.2-0.2,0.2-0.4,0-0.6
	c-4-4-10.4-4-14.4,0c-0.2,0.2-0.2,0.5,0,0.7C32.8,114.4,33.1,114.4,33.3,114.2"/>
<path class="st7" d="M177.8,254.8c0,18.7-15.2,33.9-33.9,33.9S110,273.5,110,254.8s15.2-33.9,33.9-33.9l0,0
	C162.6,220.9,177.8,236.1,177.8,254.8"/>
<polygon class="st0" points="136.7,244.6 134.2,252 133.4,252 131.2,245.6 129,252 128.2,252 125.7,244.6 126.5,244.6 128.6,251 
	130.9,244.6 131.6,244.6 133.8,251 136,244.6 "/>
<path class="st0" d="M161.6,251.3v0.7h-5.3v-7.5h5.1v0.7h-4.3v2.7h3.9v0.7h-3.9v2.8H161.6z M150.1,244.6h0.8v6.8h4.2v0.7h-5
	L150.1,244.6z M146.8,244.6h0.8v7.5h-0.8V244.6z M144.4,244.6v7.5h-0.8v-3.5H139v3.5h-0.8v-7.5h0.8v3.3h4.7v-3.3H144.4z"/>
<path class="st0" d="M162.4,261.2h0.8v2.8c-0.4,0.3-0.8,0.6-1.2,0.7c-0.5,0.2-1,0.2-1.5,0.2c-0.7,0-1.4-0.2-2-0.5
	c-0.6-0.3-1.1-0.8-1.4-1.4c-0.3-0.6-0.5-1.3-0.5-1.9c0-0.7,0.2-1.4,0.5-2c0.3-0.6,0.8-1,1.4-1.3c0.6-0.3,1.3-0.5,2-0.5
	c0.5,0,1.1,0.1,1.6,0.3c0.5,0.2,0.9,0.5,1.2,0.8l-0.5,0.5c-0.6-0.6-1.4-0.9-2.2-0.9c-0.6,0-1.1,0.1-1.6,0.4
	c-0.5,0.3-0.9,0.6-1.1,1.1c-0.3,0.5-0.4,1-0.4,1.6c0,1.1,0.6,2.1,1.5,2.7c0.5,0.3,1.1,0.4,1.6,0.4c0.7,0,1.4-0.2,2-0.6L162.4,261.2z
	 M154.8,257.5v7.5h-0.6l-4.8-6.1v6.1h-0.8v-7.5h0.6l4.8,6.1v-6.1H154.8z M145.3,257.5h0.8v7.5h-0.8V257.5z M142.9,257.5v7.5h-0.6
	l-4.8-6.1v6.1h-0.8v-7.5h0.6l4.8,6.1v-6.1H142.9z M133.4,257.5h0.8v7.5h-0.8V257.5z M127.6,264.3c0.6,0,1.2-0.1,1.7-0.4
	c0.5-0.2,0.9-0.6,1.1-1.1c0.3-0.5,0.4-1,0.4-1.6c0-0.6-0.1-1.1-0.4-1.6c-0.3-0.5-0.7-0.8-1.1-1.1c-0.5-0.3-1.1-0.4-1.7-0.4h-2.2v6.1
	H127.6z M124.6,257.5h3c0.7,0,1.4,0.1,2.1,0.5c0.6,0.3,1.1,0.8,1.4,1.3c0.3,0.6,0.5,1.3,0.5,2c0,0.7-0.2,1.3-0.5,1.9
	c-0.3,0.6-0.8,1-1.4,1.3c-0.6,0.3-1.4,0.5-2.1,0.5h-3V257.5z"/>
<path class="st7" d="M177.8,116.1c0,18.7-15.2,33.9-33.9,33.9S110,134.8,110,116.1c0-18.7,15.2-33.9,33.9-33.9l0,0
	C162.6,82.2,177.8,97.4,177.8,116.1"/>
<path class="st0" d="M138,106.6v2.9h3.9v0.7H138v3.2h-0.8v-7.5h5.1v0.7H138z M135.3,112.7v0.7h-5.3v-7.5h5.1v0.7h-4.3v2.7h3.9v0.7
	h-3.9v2.8H135.3z M125.4,112.7c0.5,0,1-0.1,1.5-0.3c0.3-0.2,0.5-0.6,0.5-1.1c0-0.9-0.7-1.4-2-1.4h-2.7v2.8H125.4z M122.8,106.5v2.7
	h2.4c0.5,0,1-0.1,1.4-0.4c0.3-0.2,0.5-0.6,0.5-1c0-0.4-0.2-0.8-0.5-1c-0.4-0.2-0.9-0.4-1.4-0.3L122.8,106.5z M126.7,109.5
	c0.4,0.1,0.8,0.3,1.1,0.6c0.3,0.3,0.4,0.8,0.4,1.2c0,0.6-0.2,1.1-0.7,1.5c-0.6,0.4-1.4,0.6-2.1,0.5H122v-7.5h3.2
	c0.7,0,1.4,0.1,1.9,0.5c0.5,0.3,0.7,0.9,0.7,1.4c0,0.4-0.1,0.7-0.3,1C127.3,109.1,127,109.4,126.7,109.5L126.7,109.5z"/>
<path class="st0" d="M165.8,112.7v0.7h-5.3v-7.5h5.1v0.7h-4.3v2.7h3.9v0.7h-3.9v2.8H165.8z M155.6,110.3c0.6,0,1.2-0.1,1.7-0.5
	c0.8-0.7,0.8-2,0.1-2.7c0,0,0,0-0.1-0.1c-0.5-0.3-1.1-0.5-1.7-0.5h-2v3.8H155.6z M157.9,113.3l-1.7-2.4h-0.6h-2v2.4h-0.8v-7.4h2.8
	c0.8,0,1.6,0.2,2.2,0.7c0.5,0.5,0.8,1.2,0.8,1.9c0,0.5-0.1,1-0.4,1.5c-0.3,0.4-0.8,0.7-1.3,0.9l1.8,2.6L157.9,113.3z M147.1,112.7
	c0.6,0,1.1-0.1,1.6-0.4c0.5-0.3,0.9-0.6,1.1-1.1c0.3-0.5,0.4-1,0.4-1.6c0-0.6-0.1-1.1-0.4-1.6c-0.3-0.5-0.6-0.9-1.1-1.1
	c-1-0.5-2.2-0.5-3.2,0c-0.5,0.3-0.9,0.6-1.1,1.1c-0.3,0.5-0.4,1-0.4,1.6c0,0.6,0.1,1.1,0.4,1.6c0.3,0.5,0.7,0.9,1.1,1.1
	C146,112.5,146.5,112.7,147.1,112.7 M147.1,113.4c-0.7,0-1.4-0.2-2-0.5c-0.6-0.3-1.1-0.8-1.4-1.4c-0.7-1.2-0.7-2.7,0-3.9
	c0.3-0.6,0.8-1,1.4-1.4c1.3-0.6,2.7-0.6,4,0c0.6,0.3,1.1,0.8,1.4,1.4c0.3,0.6,0.5,1.3,0.5,2c0,0.7-0.2,1.4-0.5,2
	c-0.3,0.6-0.8,1-1.4,1.4C148.5,113.2,147.8,113.4,147.1,113.4L147.1,113.4z"/>
<path class="st0" d="M162.4,122.5h0.8v2.8c-0.4,0.3-0.8,0.6-1.2,0.7c-0.5,0.2-1,0.2-1.5,0.2c-0.7,0-1.4-0.2-2-0.5
	c-0.6-0.3-1.1-0.8-1.4-1.4c-0.3-0.6-0.5-1.3-0.5-1.9c0-0.7,0.2-1.4,0.5-2c0.3-0.6,0.8-1,1.4-1.4c0.6-0.3,1.3-0.5,2-0.5
	c0.5,0,1.1,0.1,1.6,0.3c0.5,0.2,0.9,0.4,1.2,0.8l-0.5,0.5c-0.6-0.6-1.4-0.9-2.2-0.9c-0.6,0-1.1,0.1-1.6,0.4
	c-0.5,0.3-0.9,0.6-1.1,1.1c-0.3,0.5-0.4,1-0.4,1.6c0,1.1,0.6,2.1,1.5,2.7c0.5,0.3,1.1,0.4,1.6,0.4c0.7,0,1.4-0.2,2-0.6L162.4,122.5z
	 M154.8,118.8v7.5h-0.6l-4.8-6.1v6.1h-0.8v-7.5h0.6l4.8,6.1v-6.1H154.8z M145.3,118.8h0.8v7.5h-0.8V118.8z M142.9,118.8v7.5h-0.6
	l-4.8-6.1v6.1h-0.8v-7.5h0.6l4.8,6.1v-6.1H142.9z M133.4,118.8h0.8v7.5h-0.8V118.8z M127.6,125.6c0.6,0,1.2-0.1,1.7-0.4
	c0.5-0.2,0.9-0.6,1.1-1.1c0.3-0.5,0.4-1,0.4-1.6c0-0.6-0.1-1.1-0.4-1.6c-0.3-0.5-0.7-0.8-1.1-1.1c-0.5-0.3-1.1-0.4-1.7-0.4h-2.2v6.1
	L127.6,125.6z M124.6,118.8h3c0.7,0,1.4,0.1,2.1,0.5c0.6,0.3,1.1,0.8,1.4,1.3c0.3,0.6,0.5,1.3,0.5,2c0,0.7-0.2,1.3-0.5,1.9
	c-0.3,0.6-0.8,1-1.4,1.3c-0.6,0.3-1.4,0.5-2.1,0.5h-3V118.8z"/>
<path class="st7" d="M177.8,399.5c0,18.7-15.2,33.9-33.9,33.9S110,418.2,110,399.5s15.2-33.9,33.9-33.9l0,0
	C162.6,365.6,177.8,380.8,177.8,399.5C177.8,399.5,177.8,399.5,177.8,399.5"/>
<path class="st0" d="M136.1,389.9v2.9h3.9v0.6h-3.9v3.2h-0.8v-7.5h5.1v0.7L136.1,389.9z M132.1,394.1l-1.8-4l-1.8,4H132.1z
	 M132.4,394.7h-4.1l-0.9,2h-0.8l3.4-7.5h0.8l3.4,7.5h-0.8L132.4,394.7z"/>
<path class="st0" d="M158.1,393.7c0.6,0,1.2-0.1,1.7-0.5c0.4-0.3,0.6-0.8,0.6-1.4c0-0.5-0.2-1-0.6-1.4c-0.5-0.4-1.1-0.5-1.7-0.5h-2
	v3.7H158.1z M160.5,396.7l-1.7-2.4c-0.2,0-0.4,0-0.6,0h-2v2.4h-0.8v-7.5h2.8c0.8,0,1.6,0.2,2.2,0.7c0.5,0.5,0.8,1.2,0.8,1.9
	c0,0.5-0.1,1-0.4,1.5c-0.3,0.4-0.8,0.7-1.3,0.9l1.8,2.6L160.5,396.7z M153.5,396v0.7h-5.3v-7.5h5.1v0.7H149v2.7h3.9v0.7H149v2.8
	H153.5z M143.5,389.9h-2.6v-0.7h6v0.7h-2.6v6.8h-0.8L143.5,389.9z"/>
<path class="st0" d="M162.4,405.9h0.8v2.8c-0.4,0.3-0.8,0.6-1.2,0.7c-0.5,0.2-1,0.2-1.5,0.2c-0.7,0-1.4-0.2-2-0.5
	c-0.6-0.3-1.1-0.8-1.4-1.4c-0.7-1.2-0.7-2.7,0-3.9c0.3-0.6,0.8-1,1.4-1.4c0.6-0.3,1.3-0.5,2-0.5c0.5,0,1.1,0.1,1.6,0.3
	c0.5,0.2,0.9,0.5,1.2,0.8l-0.5,0.5c-0.6-0.6-1.4-0.9-2.2-0.9c-0.6,0-1.1,0.1-1.6,0.4c-0.5,0.3-0.9,0.6-1.1,1.1
	c-0.3,0.5-0.4,1-0.4,1.6c0,0.6,0.1,1.1,0.4,1.6c0.3,0.5,0.7,0.8,1.1,1.1c0.5,0.3,1.1,0.4,1.6,0.4c0.7,0,1.4-0.2,2-0.6L162.4,405.9z
	 M154.8,402.1v7.5h-0.6l-4.8-6.1v6.1h-0.8v-7.5h0.6l4.8,6v-6H154.8z M145.3,402.1h0.8v7.5h-0.8V402.1z M142.9,402.1v7.5h-0.6
	l-4.8-6.1v6.1h-0.8v-7.5h0.6l4.8,6v-6H142.9z M133.4,402.1h0.8v7.5h-0.8V402.1z M127.6,408.9c0.6,0,1.2-0.1,1.7-0.4
	c0.5-0.2,0.9-0.6,1.1-1.1c0.3-0.5,0.4-1,0.4-1.6c0-0.6-0.1-1.1-0.4-1.6c-0.3-0.5-0.7-0.8-1.1-1.1c-0.5-0.3-1.1-0.4-1.7-0.4h-2.2v6.1
	L127.6,408.9z M124.6,402.1h3c0.7,0,1.4,0.1,2.1,0.5c0.6,0.3,1.1,0.8,1.4,1.3c0.7,1.2,0.7,2.7,0,3.9c-0.3,0.6-0.8,1-1.4,1.3
	c-0.6,0.3-1.4,0.5-2.1,0.5h-3V402.1z"/>
<path class="st2" d="M152.4,46.5l-1.1,1v1.4h-0.6v-6.7h0.6v4.6l2.8-2.6h0.8l-2,1.9l2.2,2.8h-0.8L152.4,46.5z M146.9,48.4
	c0.3,0,0.6-0.1,0.9-0.2c0.3-0.2,0.5-0.4,0.6-0.6c0.3-0.6,0.3-1.3,0-1.9c-0.1-0.3-0.4-0.5-0.6-0.7c-0.3-0.2-0.6-0.2-0.9-0.2
	c-0.3,0-0.6,0.1-0.9,0.2c-0.3,0.2-0.5,0.4-0.6,0.7c-0.3,0.6-0.3,1.3,0,1.9c0.1,0.3,0.4,0.5,0.6,0.6
	C146.3,48.3,146.6,48.4,146.9,48.4 M146.9,48.9c-0.4,0-0.9-0.1-1.2-0.3c-0.4-0.2-0.7-0.5-0.9-0.9c-0.4-0.8-0.4-1.7,0-2.5
	c0.2-0.4,0.5-0.7,0.9-0.9c0.4-0.2,0.8-0.3,1.2-0.3c0.4,0,0.9,0.1,1.2,0.3c0.4,0.2,0.7,0.5,0.9,0.9c0.4,0.8,0.4,1.7,0,2.5
	c-0.2,0.4-0.5,0.7-0.9,0.9C147.8,48.8,147.4,48.9,146.9,48.9L146.9,48.9z M141.3,48.4c0.3,0,0.6-0.1,0.9-0.2
	c0.3-0.2,0.5-0.4,0.6-0.6c0.3-0.6,0.3-1.3,0-1.9c-0.1-0.3-0.4-0.5-0.6-0.7c-0.3-0.2-0.6-0.2-0.9-0.2c-0.3,0-0.6,0.1-0.9,0.2
	c-0.3,0.2-0.5,0.4-0.6,0.7c-0.3,0.6-0.3,1.3,0,1.9c0.1,0.3,0.4,0.5,0.6,0.6C140.6,48.3,141,48.4,141.3,48.4 M141.3,48.9
	c-0.4,0-0.9-0.1-1.2-0.3c-0.4-0.2-0.7-0.5-0.9-0.9c-0.4-0.8-0.4-1.7,0-2.5c0.2-0.4,0.5-0.7,0.9-0.9c0.8-0.4,1.7-0.4,2.5,0
	c0.4,0.2,0.7,0.5,0.9,0.9c0.4,0.8,0.4,1.7,0,2.5c-0.2,0.4-0.5,0.7-0.9,0.9C142.1,48.8,141.7,48.9,141.3,48.9L141.3,48.9z
	 M135.5,48.3c0.4,0,0.9-0.1,1.3-0.3c0.3-0.2,0.5-0.6,0.4-0.9c0-0.8-0.6-1.2-1.7-1.2h-2.2v2.4L135.5,48.3z M133.3,43.1v2.3h2
	c0.4,0,0.8-0.1,1.2-0.3c0.3-0.2,0.4-0.5,0.4-0.9c0-0.3-0.1-0.7-0.4-0.9c-0.4-0.2-0.8-0.3-1.2-0.3L133.3,43.1z M136.6,45.6
	c0.4,0.1,0.7,0.2,1,0.5c0.2,0.3,0.3,0.7,0.3,1.1c0,0.5-0.2,1-0.6,1.2c-0.5,0.3-1.2,0.5-1.8,0.4h-2.9v-6.4h2.7c0.6,0,1.2,0.1,1.6,0.4
	c0.4,0.3,0.6,0.7,0.6,1.2c0,0.3-0.1,0.6-0.3,0.9C137.2,45.3,136.9,45.5,136.6,45.6L136.6,45.6z"/>
<path class="st6" d="M141.3,13.5c1.4-1.4,3.7-1.4,5.2,0c0.2,0.2,0.5,0.2,0.7,0c0,0,0,0,0,0c0.2-0.2,0.2-0.5,0-0.7
	c-1.8-1.8-4.7-1.8-6.6,0c-0.2,0.2-0.2,0.5,0,0.7C140.8,13.7,141.1,13.7,141.3,13.5C141.3,13.5,141.3,13.5,141.3,13.5"/>
<path class="st6" d="M143.9,14.7c0.8,0,1.4,0.6,1.4,1.4s-0.6,1.4-1.4,1.4c-0.8,0-1.4-0.6-1.4-1.4S143.1,14.7,143.9,14.7L143.9,14.7"
	/>
<path class="st6" d="M143.9,15.2c0.5,0,0.9,0.4,0.9,0.9s-0.4,0.9-0.9,0.9c-0.5,0-0.9-0.4-0.9-0.9c0,0,0,0,0,0
	C143,15.6,143.4,15.2,143.9,15.2L143.9,15.2 M143.9,14.2c-1,0-1.9,0.8-1.9,1.9s0.8,1.9,1.9,1.9c1,0,1.9-0.8,1.9-1.9c0,0,0,0,0,0
	C145.7,15,144.9,14.2,143.9,14.2L143.9,14.2z"/>
<path class="st6" d="M139.3,11.5c2.5-2.5,6.6-2.5,9.1,0c0,0,0,0,0,0c0.2,0.2,0.5,0.1,0.7-0.1c0.2-0.2,0.2-0.4,0-0.6
	c-2.9-2.9-7.6-2.9-10.5,0c0,0,0,0,0,0c-0.2,0.2-0.1,0.5,0.1,0.7C138.9,11.6,139.2,11.6,139.3,11.5"/>
<path class="st6" d="M137.4,9.6c3.6-3.6,9.4-3.6,13,0c0.2,0.2,0.5,0.2,0.7,0.1c0.2-0.2,0.2-0.5,0.1-0.7c0,0,0,0-0.1-0.1
	c-4-4-10.4-4-14.4,0c-0.2,0.2-0.2,0.5-0.1,0.7C136.8,9.8,137.1,9.8,137.4,9.6C137.3,9.6,137.4,9.6,137.4,9.6"/>
<path class="st3" d="M124.1,496.5l-9.8,1.2l0.2-0.2l0.2-0.2l0.2-0.2l0.2-0.2l0.1-0.2l0.1-0.2l0.1-0.2l0.1-0.2l0.1-0.2l0.1-0.2
	l0.1-0.2l0.1-0.2l0.1-0.2l0.1-0.2l0.1-0.2l0.1-0.2l0.1-0.2l0.1-0.2v-0.2v-0.2v-0.2v-0.2v-0.2v-0.2v-0.8v-0.3v-0.3v-0.3v-0.3v-0.3
	L124.1,496.5z M119.5,495.9l-14.9-4.3l0.4-1.2l15,4.3L119.5,495.9z"/>
<path class="st2" d="M138,452.1c0.5,0,1-0.1,1.4-0.4c0.3-0.3,0.5-0.7,0.5-1.2c0-0.5-0.2-0.9-0.5-1.2c-0.4-0.3-0.9-0.4-1.4-0.4h-1.7
	v3.2L138,452.1z M140,454.7l-1.5-2c-0.2,0-0.3,0-0.5,0h-1.7v2h-0.7v-6.3h2.4c0.7,0,1.4,0.2,1.9,0.6c0.5,0.4,0.7,1,0.7,1.6
	c0,0.4-0.1,0.9-0.4,1.2c-0.3,0.4-0.7,0.6-1.1,0.7l1.5,2.2L140,454.7z"/>
<path class="st2" d="M149.8,454.4c-0.1,0.1-0.3,0.2-0.4,0.2c-0.2,0.1-0.4,0.1-0.6,0.1c-0.7,0.1-1.3-0.4-1.4-1.1c0-0.1,0-0.2,0-0.3
	v-2.8h-0.9V450h0.9v-1h0.6v1h1.4v0.5H148v2.8c0,0.2,0.1,0.5,0.2,0.7c0.2,0.2,0.4,0.2,0.6,0.2c0.1,0,0.3,0,0.4-0.1
	c0.1,0,0.2-0.1,0.3-0.2L149.8,454.4z M143.4,454.2c0.3,0,0.7-0.1,0.9-0.3c0.3-0.2,0.5-0.4,0.6-0.7v-0.7h-1.5c-0.8,0-1.2,0.3-1.2,0.8
	c0,0.3,0.1,0.5,0.3,0.7C142.7,454.2,143,454.3,143.4,454.2 M143.6,449.9c0.5,0,1,0.1,1.4,0.5c0.4,0.4,0.5,0.9,0.5,1.4v3h-0.6V454
	c-0.1,0.3-0.4,0.5-0.6,0.6c-0.3,0.1-0.7,0.2-1,0.2c-0.5,0-0.9-0.1-1.3-0.4c-0.6-0.5-0.6-1.3-0.2-1.8c0.1-0.1,0.1-0.1,0.2-0.2
	c0.4-0.3,0.9-0.4,1.4-0.4h1.5v-0.3c0-0.3-0.1-0.7-0.4-0.9c-0.3-0.2-0.6-0.3-1-0.3c-0.3,0-0.6,0.1-0.9,0.2c-0.3,0.1-0.5,0.2-0.7,0.4
	l-0.3-0.5c0.3-0.2,0.6-0.4,0.9-0.5C142.9,449.9,143.3,449.9,143.6,449.9L143.6,449.9z"/>
<path class="st2" d="M152.7,450.4c-0.4,0-0.8,0.1-1.1,0.4c-0.3,0.3-0.5,0.7-0.5,1.2h3.4c0-0.4-0.2-0.8-0.5-1.2
	C153.5,450.6,153.1,450.4,152.7,450.4 M154.9,452.5h-4c0,0.5,0.2,0.9,0.6,1.2c0.4,0.3,0.8,0.5,1.3,0.5c0.3,0,0.6,0,0.8-0.2
	c0.2-0.1,0.5-0.3,0.6-0.5l0.4,0.4c-0.2,0.3-0.5,0.5-0.8,0.6c-0.3,0.1-0.7,0.2-1,0.2c-0.5,0-0.9-0.1-1.3-0.3
	c-0.4-0.2-0.7-0.5-0.9-0.9c-0.4-0.8-0.4-1.7,0-2.5c0.2-0.4,0.5-0.7,0.8-0.9c1.1-0.7,2.5-0.3,3.1,0.8c0,0,0,0.1,0,0.1
	c0.2,0.4,0.3,0.8,0.3,1.3L154.9,452.5z"/>
<polygon class="st2" points="124.2,461.4 124.2,463.9 127.5,463.9 127.5,464.5 124.2,464.5 124.2,467.1 123.6,467.1 123.6,460.8 
	127.9,460.8 127.9,461.4 "/>
<path class="st2" d="M148.5,466.6c0.3,0,0.6-0.1,0.9-0.2c0.3-0.1,0.5-0.4,0.6-0.7c0.3-0.6,0.3-1.3,0-1.9c-0.1-0.3-0.4-0.5-0.6-0.7
	c-0.6-0.3-1.2-0.3-1.8,0c-0.3,0.2-0.5,0.4-0.6,0.7c-0.3,0.6-0.3,1.3,0,1.9c0.1,0.3,0.4,0.5,0.6,0.7
	C147.8,466.5,148.1,466.6,148.5,466.6 M148.5,462.3c0.4,0,0.8,0.1,1.2,0.3c0.4,0.2,0.7,0.5,0.9,0.9c0.4,0.8,0.4,1.7,0,2.5
	c-0.2,0.4-0.5,0.7-0.9,0.9c-0.4,0.2-0.8,0.3-1.2,0.3c-0.4,0-0.7-0.1-1.1-0.3c-0.3-0.2-0.6-0.4-0.8-0.7v0.9H146v-6.7h0.6v2.9
	c0.2-0.3,0.5-0.5,0.8-0.7C147.8,462.4,148.1,462.3,148.5,462.3L148.5,462.3z M141.8,466.6c0.3,0,0.6-0.1,0.9-0.2
	c0.3-0.2,0.5-0.4,0.6-0.7c0.3-0.6,0.3-1.3,0-1.9c-0.1-0.3-0.4-0.5-0.6-0.7c-0.3-0.2-0.6-0.2-0.9-0.2c-0.3,0-0.6,0.1-0.9,0.2
	c-0.3,0.2-0.5,0.4-0.6,0.7c-0.3,0.6-0.3,1.3,0,1.9c0.1,0.3,0.4,0.5,0.6,0.7C141.2,466.5,141.5,466.6,141.8,466.6 M144.2,460.4v6.7
	h-0.6v-0.9c-0.2,0.3-0.4,0.6-0.8,0.7c-0.3,0.2-0.7,0.3-1.1,0.3c-0.4,0-0.8-0.1-1.2-0.3c-0.4-0.2-0.7-0.5-0.9-0.9
	c-0.4-0.8-0.4-1.7,0-2.5c0.2-0.4,0.5-0.7,0.9-0.9c0.4-0.2,0.8-0.3,1.2-0.3c0.3,0,0.7,0.1,1,0.2c0.3,0.2,0.6,0.4,0.8,0.7v-2.9H144.2z
	 M136.2,462.9c-0.4,0-0.8,0.1-1.1,0.4c-0.3,0.3-0.5,0.7-0.5,1.2h3.4c0-0.4-0.2-0.8-0.5-1.2C137.1,463,136.7,462.9,136.2,462.9
	 M138.5,465h-4c0,0.5,0.2,0.9,0.6,1.2c0.4,0.3,0.8,0.5,1.3,0.5c0.3,0,0.6-0.1,0.8-0.2c0.2-0.1,0.5-0.3,0.6-0.5l0.4,0.4
	c-0.2,0.3-0.5,0.5-0.8,0.6c-0.3,0.1-0.7,0.2-1,0.2c-0.5,0-0.9-0.1-1.3-0.3c-0.4-0.2-0.7-0.5-0.9-0.9c-0.4-0.8-0.4-1.7,0-2.5
	c0.2-0.4,0.5-0.7,0.8-0.9c0.7-0.4,1.6-0.4,2.4,0c0.3,0.2,0.6,0.5,0.8,0.8c0.2,0.4,0.3,0.8,0.3,1.3V465z M130.8,462.9
	c-0.4,0-0.8,0.1-1.1,0.4c-0.3,0.3-0.5,0.7-0.5,1.2h3.4c0-0.4-0.2-0.8-0.5-1.2C131.6,463,131.2,462.9,130.8,462.9 M133.1,465h-4
	c0,0.5,0.2,0.9,0.6,1.2c0.4,0.3,0.8,0.5,1.3,0.5c0.3,0,0.6,0,0.8-0.2c0.2-0.1,0.5-0.3,0.6-0.5l0.4,0.4c-0.2,0.3-0.5,0.5-0.8,0.6
	c-0.3,0.1-0.7,0.2-1,0.2c-0.5,0-0.9-0.1-1.3-0.3c-0.4-0.2-0.7-0.5-0.9-0.9c-0.4-0.8-0.4-1.7,0-2.5c0.2-0.4,0.5-0.7,0.8-0.9
	c0.4-0.2,0.8-0.3,1.2-0.3c0.4,0,0.8,0.1,1.2,0.3c0.3,0.2,0.6,0.5,0.8,0.8c0.2,0.4,0.3,0.8,0.3,1.3L133.1,465z"/>
<path class="st2" d="M159.5,467.2c-0.4,0-0.9-0.1-1.2-0.3c-0.4-0.2-0.7-0.5-0.9-0.9c-0.4-0.8-0.4-1.7,0-2.5c0.2-0.4,0.5-0.7,0.9-0.9
	c0.4-0.2,0.8-0.3,1.2-0.3c0.4,0,0.8,0.1,1.1,0.2c0.3,0.2,0.6,0.4,0.8,0.7l-0.5,0.3c-0.1-0.2-0.4-0.4-0.6-0.5
	c-0.2-0.1-0.5-0.2-0.8-0.2c-0.3,0-0.6,0.1-0.9,0.2c-0.3,0.2-0.5,0.4-0.6,0.7c-0.2,0.3-0.3,0.7-0.2,1c0,0.3,0.1,0.7,0.2,1
	c0.1,0.3,0.4,0.5,0.6,0.7c0.3,0.2,0.6,0.2,0.9,0.2c0.3,0,0.5-0.1,0.8-0.2c0.2-0.1,0.5-0.3,0.6-0.5l0.5,0.3c-0.2,0.3-0.4,0.5-0.8,0.7
	C160.2,467.2,159.9,467.3,159.5,467.2 M153.6,466.7c0.3,0,0.7-0.1,0.9-0.3c0.3-0.2,0.5-0.4,0.6-0.7V465h-1.5c-0.8,0-1.2,0.3-1.2,0.8
	c0,0.3,0.1,0.5,0.3,0.7C153,466.7,153.3,466.8,153.6,466.7 M153.8,462.4c0.5,0,1,0.1,1.4,0.5c0.3,0.4,0.5,0.9,0.5,1.4v3h-0.6v-0.7
	c-0.2,0.2-0.4,0.5-0.6,0.6c-0.3,0.1-0.7,0.2-1,0.2c-0.5,0-0.9-0.1-1.3-0.4c-0.3-0.2-0.5-0.6-0.5-1c0-0.4,0.1-0.8,0.5-1
	c0.4-0.3,0.9-0.4,1.4-0.4h1.5v-0.3c0-0.3-0.1-0.7-0.3-0.9c-0.3-0.2-0.6-0.3-1-0.3c-0.3,0-0.6,0.1-0.9,0.2c-0.3,0.1-0.5,0.2-0.7,0.4
	l-0.3-0.5c0.2-0.2,0.5-0.4,0.9-0.5C153.1,462.4,153.5,462.3,153.8,462.4L153.8,462.4z"/>
<polygon class="st2" points="164.3,464.8 163.2,465.8 163.2,467.1 162.5,467.1 162.5,460.4 163.2,460.4 163.2,465 166,462.4 
	166.8,462.4 164.8,464.3 167,467.1 166.2,467.1 "/>
<path class="st6" d="M149.2,498.5c-1.4-1.4-3.7-1.4-5.2,0c0,0,0,0,0,0c-0.2,0.2-0.5,0.1-0.7-0.1c-0.2-0.2-0.2-0.4,0-0.6
	c1.8-1.8,4.7-1.8,6.6,0c0.2,0.2,0.2,0.5,0.1,0.7C149.7,498.7,149.4,498.7,149.2,498.5C149.2,498.5,149.2,498.5,149.2,498.5"/>
<path class="st6" d="M146.6,499.6c-0.8,0-1.4,0.6-1.4,1.4s0.6,1.4,1.4,1.4s1.4-0.6,1.4-1.4S147.3,499.6,146.6,499.6L146.6,499.6"/>
<path class="st6" d="M146.6,500.1c-0.5,0-0.9,0.4-0.9,0.9c0,0.5,0.4,0.9,0.9,0.9c0.5,0,0.9-0.4,0.9-0.9
	C147.5,500.5,147.1,500.1,146.6,500.1C146.6,500.1,146.6,500.1,146.6,500.1 M146.6,499.1c1,0,1.9,0.8,1.9,1.9s-0.8,1.9-1.9,1.9
	s-1.9-0.8-1.9-1.9l0,0C144.7,500,145.5,499.2,146.6,499.1L146.6,499.1z"/>
<path class="st6" d="M151.1,496.5c-2.5-2.5-6.6-2.5-9.1,0c0,0,0,0,0,0c-0.2,0.2-0.5,0.2-0.7,0c-0.2-0.2-0.2-0.5,0-0.7
	c2.9-2.9,7.6-2.9,10.5,0c0.2,0.2,0.2,0.5,0,0.7S151.3,496.7,151.1,496.5"/>
<path class="st6" d="M153.1,494.5c-3.6-3.6-9.4-3.6-13,0c0,0,0,0,0,0c-0.2,0.2-0.5,0.1-0.7-0.1c-0.2-0.2-0.2-0.4,0-0.6
	c4-4,10.4-4,14.4,0c0.2,0.2,0.1,0.5-0.1,0.7C153.5,494.6,153.2,494.6,153.1,494.5"/>
<path class="st2" d="M2.4,248c0.5,0,1-0.1,1.4-0.4c0.3-0.3,0.5-0.7,0.5-1.2c0-0.5-0.2-0.9-0.5-1.2c-0.4-0.3-0.9-0.4-1.4-0.4H0.7v3.2
	H2.4z M2.4,244.3c0.7,0,1.4,0.2,1.9,0.6c0.5,0.4,0.7,1,0.7,1.6c0,0.6-0.2,1.2-0.7,1.6c-0.5,0.4-1.2,0.6-1.9,0.6H0.7v2H0v-6.3
	L2.4,244.3z"/>
<path class="st2" d="M24.9,244.4c-0.2,0-0.5,0.1-0.6,0.2c-0.2,0.2-0.2,0.4-0.2,0.7v0.6h1.5v0.5h-1.4v4.2h-0.6v-4.2h-0.9v-0.5h0.9
	v-0.6c-0.1-0.7,0.5-1.4,1.2-1.4c0.1,0,0.2,0,0.2,0c0.2,0,0.4,0,0.5,0.1c0.2,0,0.3,0.1,0.4,0.2l-0.2,0.5
	C25.4,244.5,25.1,244.4,24.9,244.4 M16.7,249.9c0.3,0,0.6-0.1,0.9-0.2c0.3-0.1,0.5-0.4,0.6-0.6c0.3-0.6,0.3-1.2,0-1.8
	c-0.2-0.3-0.4-0.5-0.6-0.6c-0.3-0.1-0.6-0.2-0.9-0.2c-0.3,0-0.6,0.1-0.9,0.2c-0.3,0.1-0.5,0.3-0.6,0.6c-0.3,0.6-0.3,1.2,0,1.8
	c0.2,0.3,0.4,0.5,0.6,0.6C16.1,249.8,16.4,249.9,16.7,249.9 M19.1,245.9v4.2c0.1,0.7-0.2,1.3-0.6,1.8c-0.5,0.4-1.1,0.6-1.8,0.6
	c-0.4,0-0.8-0.1-1.2-0.2c-0.4-0.1-0.7-0.3-1-0.5l0.3-0.5c0.2,0.2,0.5,0.4,0.8,0.5c0.3,0.1,0.7,0.2,1,0.2c0.5,0,1-0.1,1.3-0.4
	c0.3-0.4,0.5-0.8,0.4-1.3v-0.6c-0.2,0.3-0.5,0.5-0.8,0.7c-0.3,0.2-0.7,0.2-1.1,0.2c-0.4,0-0.8-0.1-1.2-0.3c-0.4-0.2-0.7-0.5-0.9-0.8
	c-0.4-0.7-0.4-1.6,0-2.4c0.2-0.3,0.5-0.6,0.9-0.8c0.4-0.2,0.8-0.3,1.2-0.3c0.4,0,0.8,0.1,1.1,0.2c0.3,0.2,0.6,0.4,0.8,0.7v-0.9
	L19.1,245.9z M11,245.9c0.5,0,1,0.2,1.4,0.5c0.4,0.4,0.6,1,0.5,1.5v2.8h-0.6V248c0-0.4-0.1-0.8-0.4-1.1c-0.3-0.3-0.7-0.4-1.1-0.4
	c-0.5,0-0.9,0.1-1.2,0.5c-0.3,0.3-0.5,0.8-0.4,1.3v2.5H8.6v-4.8h0.6v0.9c0.2-0.3,0.4-0.5,0.7-0.7C10.3,245.9,10.6,245.9,11,245.9
	 M6.5,244.9c-0.1,0-0.2,0-0.3-0.1c-0.1-0.1-0.1-0.2-0.1-0.3c0-0.1,0.1-0.2,0.1-0.3c0.1-0.1,0.2-0.1,0.3-0.1c0.1,0,0.2,0,0.3,0.1
	c0.1,0.1,0.1,0.2,0.1,0.3c0,0.1,0,0.3-0.1,0.3C6.7,244.8,6.6,244.9,6.5,244.9 M6.2,245.9h0.6v4.8H6.1L6.2,245.9z"/>
<path class="st2" d="M48.5,246.8c0.1-0.3,0.4-0.6,0.7-0.7c0.3-0.2,0.7-0.3,1.1-0.2v0.7h-0.2c-0.4,0-0.9,0.1-1.2,0.5
	c-0.3,0.4-0.5,0.8-0.4,1.3v2.4h-0.6v-4.8h0.6V246.8z M44.3,246.4c-0.4,0-0.8,0.1-1.1,0.4c-0.3,0.3-0.5,0.7-0.5,1.1h3.4
	c0-0.4-0.2-0.8-0.5-1.1C45.1,246.5,44.7,246.4,44.3,246.4 M46.6,248.4h-4c0,0.5,0.2,0.9,0.6,1.2c0.4,0.3,0.8,0.5,1.3,0.5
	c0.3,0,0.6-0.1,0.8-0.2c0.2-0.1,0.5-0.3,0.6-0.5l0.4,0.4c-0.2,0.3-0.5,0.5-0.8,0.6c-0.3,0.1-0.7,0.2-1,0.2c-0.5,0-0.9-0.1-1.3-0.3
	c-0.4-0.2-0.7-0.5-0.9-0.9c-0.2-0.4-0.3-0.8-0.3-1.2c0-0.4,0.1-0.9,0.3-1.2c0.2-0.4,0.5-0.7,0.8-0.9c0.7-0.4,1.6-0.4,2.4,0
	c0.4,0.2,0.6,0.5,0.8,0.9c0.2,0.4,0.3,0.8,0.3,1.2L46.6,248.4z M39.3,250.7c-0.4,0-0.7-0.1-1.1-0.2c-0.3-0.1-0.6-0.2-0.8-0.4
	l0.3-0.5c0.2,0.2,0.5,0.3,0.8,0.4c0.3,0.1,0.6,0.2,0.9,0.2c0.3,0,0.7,0,1-0.2c0.2-0.1,0.3-0.3,0.3-0.6c0-0.2-0.1-0.3-0.2-0.4
	c-0.1-0.1-0.3-0.2-0.4-0.2c-0.2,0-0.4-0.1-0.7-0.1c-0.3-0.1-0.6-0.1-0.9-0.2c-0.2-0.1-0.4-0.2-0.6-0.4c-0.2-0.2-0.3-0.5-0.2-0.8
	c0-0.4,0.2-0.8,0.5-1c0.4-0.3,0.9-0.4,1.4-0.4c0.3,0,0.6,0,0.9,0.1c0.3,0.1,0.5,0.2,0.8,0.3l-0.3,0.5c-0.4-0.3-0.9-0.4-1.4-0.4
	c-0.3,0-0.6,0.1-0.9,0.2c-0.2,0.1-0.3,0.3-0.3,0.6c0,0.2,0.1,0.3,0.2,0.4c0.1,0.1,0.3,0.2,0.4,0.2c0.2,0.1,0.5,0.1,0.7,0.2
	c0.3,0,0.6,0.1,0.9,0.2c0.2,0.1,0.4,0.2,0.6,0.4c0.2,0.2,0.3,0.5,0.2,0.7c0,0.4-0.2,0.8-0.5,1C40.3,250.5,39.8,250.7,39.3,250.7
	 M32.6,246.8c0.1-0.3,0.4-0.6,0.7-0.7c0.3-0.2,0.7-0.3,1.1-0.2v0.7h-0.1c-0.4,0-0.9,0.1-1.2,0.5c-0.3,0.4-0.4,0.8-0.4,1.3v2.4H32
	v-4.8h0.6L32.6,246.8z M28.3,250.1c0.3,0,0.6-0.1,0.9-0.2c0.3-0.2,0.5-0.4,0.6-0.6c0.3-0.6,0.3-1.3,0-1.9c-0.1-0.3-0.4-0.5-0.6-0.7
	c-0.3-0.2-0.6-0.2-0.9-0.2c-0.3,0-0.6,0.1-0.9,0.2c-0.3,0.2-0.5,0.4-0.6,0.7c-0.3,0.6-0.3,1.3,0,1.9c0.1,0.3,0.4,0.5,0.6,0.6
	C27.6,250,28,250.1,28.3,250.1 M28.3,250.6c-0.4,0-0.9-0.1-1.2-0.3c-0.4-0.2-0.7-0.5-0.9-0.9c-0.2-0.4-0.3-0.8-0.3-1.2
	c0-0.4,0.1-0.9,0.3-1.2c0.2-0.4,0.5-0.7,0.9-0.9c0.4-0.2,0.8-0.3,1.2-0.3c0.4,0,0.9,0.1,1.2,0.3c0.4,0.2,0.7,0.5,0.9,0.9
	c0.2,0.4,0.3,0.8,0.3,1.2c0,0.4-0.1,0.9-0.3,1.2c-0.2,0.4-0.5,0.7-0.9,0.9C29.1,250.6,28.7,250.7,28.3,250.6L28.3,250.6z"/>
<path class="st2" d="M60.9,250.7c-0.4,0-0.9-0.1-1.2-0.3c-0.4-0.2-0.7-0.5-0.9-0.9c-0.2-0.4-0.3-0.8-0.3-1.2c0-0.4,0.1-0.9,0.3-1.2
	c0.2-0.4,0.5-0.7,0.9-0.9c0.4-0.2,0.8-0.3,1.2-0.3c0.4,0,0.8,0.1,1.1,0.2c0.3,0.2,0.6,0.4,0.8,0.7l-0.5,0.3
	c-0.1-0.2-0.4-0.4-0.6-0.5c-0.2-0.1-0.5-0.2-0.8-0.2c-0.3,0-0.6,0.1-0.9,0.2c-0.3,0.1-0.5,0.4-0.6,0.7c-0.3,0.6-0.3,1.3,0,1.9
	c0.1,0.3,0.4,0.5,0.6,0.6c0.3,0.2,0.6,0.2,0.9,0.2c0.3,0,0.5-0.1,0.8-0.2c0.2-0.1,0.5-0.3,0.6-0.5l0.5,0.3c-0.2,0.3-0.5,0.5-0.8,0.7
	C61.7,250.6,61.3,250.7,60.9,250.7 M56.8,244.8c-0.1,0-0.2,0-0.3-0.1c-0.1-0.1-0.1-0.2-0.1-0.3c0-0.3,0.2-0.5,0.5-0.5
	c0.1,0,0.2,0.1,0.3,0.1c0.1,0.1,0.1,0.2,0.1,0.3C57.3,244.6,57.1,244.8,56.8,244.8C56.8,244.8,56.8,244.8,56.8,244.8 M56.5,245.8
	h0.6v4.8h-0.6V245.8z M55.6,245.8l-2.1,4.8h-0.7l-2-4.7h0.7l1.8,4.1l1.8-4.1L55.6,245.8z"/>
<path class="st2" d="M65.8,246.4c-0.4,0-0.8,0.1-1.1,0.4c-0.3,0.3-0.5,0.7-0.5,1.1h3.4c0-0.4-0.2-0.8-0.5-1.1
	C66.7,246.5,66.3,246.4,65.8,246.4 M68.1,248.4h-4c0,0.5,0.2,0.9,0.6,1.2c0.4,0.3,0.8,0.5,1.3,0.5c0.3,0,0.6-0.1,0.8-0.2
	c0.2-0.1,0.5-0.3,0.6-0.5l0.4,0.4c-0.2,0.3-0.5,0.5-0.8,0.6c-0.8,0.3-1.6,0.3-2.3-0.1c-0.4-0.2-0.7-0.5-0.9-0.9
	c-0.2-0.4-0.3-0.8-0.3-1.2c0-0.4,0.1-0.9,0.3-1.2c0.2-0.4,0.5-0.7,0.8-0.9c0.4-0.2,0.8-0.3,1.2-0.3c0.4,0,0.8,0.1,1.2,0.3
	c0.3,0.2,0.6,0.5,0.8,0.9c0.2,0.4,0.3,0.8,0.3,1.2L68.1,248.4z"/>
<path class="st2" d="M42.6,257.3h-2.2v-0.6h5.1v0.6h-2.2v5.8h-0.7V257.3z M39.8,262.5v0.6h-4.5v-6.3h4.3v0.6H36v2.2h3.3v0.6H36v2.3
	L39.8,262.5z M31.7,262.8c-0.1,0.1-0.3,0.2-0.4,0.2c-0.2,0.1-0.4,0.1-0.6,0.1c-0.4,0-0.7-0.1-1-0.4c-0.3-0.3-0.4-0.6-0.4-1v-2.9
	h-0.9v-0.5h0.9v-1h0.6v1h1.4v0.5h-1.4v2.8c0,0.2,0.1,0.5,0.2,0.6c0.2,0.2,0.4,0.2,0.6,0.2c0.1,0,0.3,0,0.4-0.1
	c0.1,0,0.2-0.1,0.3-0.2L31.7,262.8z M25.5,258.8c-0.4,0-0.8,0.1-1.1,0.4c-0.3,0.3-0.5,0.7-0.5,1.2h3.4c0-0.4-0.2-0.8-0.5-1.2
	C26.4,259,26,258.8,25.5,258.8 M27.8,260.9h-4c0,0.5,0.2,0.9,0.6,1.2c0.4,0.3,0.8,0.5,1.3,0.5c0.3,0,0.6-0.1,0.8-0.2
	c0.2-0.1,0.5-0.3,0.6-0.5l0.4,0.4c-0.2,0.3-0.5,0.5-0.8,0.6c-0.8,0.3-1.6,0.3-2.4-0.1c-0.4-0.2-0.7-0.5-0.9-0.9
	c-0.4-0.8-0.4-1.7,0-2.5c0.2-0.4,0.5-0.7,0.8-0.9c0.7-0.4,1.6-0.4,2.4,0c0.4,0.2,0.6,0.5,0.8,0.8c0.2,0.4,0.3,0.8,0.3,1.2V260.9z
	 M21.3,259.9h0.6v2.4c-0.3,0.3-0.6,0.5-1,0.6c-0.4,0.1-0.8,0.2-1.3,0.2c-0.6,0-1.2-0.1-1.7-0.4c-0.5-0.3-0.9-0.7-1.2-1.2
	c-0.3-0.5-0.4-1.1-0.4-1.6c0-0.6,0.1-1.2,0.4-1.7c0.3-0.5,0.7-0.9,1.2-1.1c0.5-0.3,1.1-0.4,1.7-0.4c0.5,0,0.9,0.1,1.3,0.2
	c0.4,0.2,0.7,0.4,1,0.7l-0.4,0.4c-0.5-0.5-1.2-0.8-1.9-0.7c-0.5,0-1,0.1-1.4,0.3c-0.4,0.2-0.8,0.5-1,0.9c-0.2,0.4-0.4,0.9-0.4,1.3
	c0,0.9,0.5,1.8,1.3,2.3c0.4,0.2,0.9,0.3,1.4,0.3c0.6,0,1.2-0.2,1.7-0.5L21.3,259.9z"/>
<path class="st2" d="M50,260.9l-1.5-3.4l-1.5,3.4H50z M50.2,261.4h-3.5l-0.8,1.7h-0.7l2.9-6.3h0.6l2.9,6.3H51L50.2,261.4z"/>
<path class="st8" d="M116.4,254.3h0.2h0.1h0.1h0.1h0.1h0.1h0.1l0.1,0h0.1l0.1,0l0.1,0.1l0.1,0l0.1,0.1l0.1,0.1l0.1,0.1l0.1,0.1
	l0.1,0.1l0.1,0.1l0.1,0.1v0.1l0,0.1l0,0.1v0.1v0.1v0.1v0.1v0.1v0.1v0.6v0.1v0.1v0.1v0.1v0.1v0.1l0,0.1l0,0.1v0.1l-0.1,0.1l-0.1,0.1
	l-0.1,0.1l-0.1,0.1l-0.1,0.1l-0.1,0.1l-0.1,0.1l-0.1,0.1l-0.1,0h-0.1l-0.1,0h-0.1h-0.1H117h-0.1h-0.1h-0.1h-0.6H116h-0.1h-0.1h-0.1
	h-0.1h-0.1l-0.1,0h-0.1l-0.1,0l-0.1-0.1l-0.1-0.1l-0.1-0.1l-0.1-0.1l-0.1-0.1l-0.1-0.1l-0.1-0.1l0-0.1l-0.1-0.1l0-0.1V257v-0.1v-0.1
	v-0.1v-0.1v-0.1v-0.1v-0.1v-0.4v-0.1v-0.1v-0.1v-0.1v-0.1v-0.1v-0.1v-0.1l0-0.1l0.1-0.1l0-0.1l0.1-0.1l0.1-0.1l0.1-0.1l0.1-0.1
	l0.1-0.1l0.1-0.1l0.1,0l0.1-0.1l0.1,0h0.1l0.1,0h0.1h0.1h0.1h0.1h0.1h0.1H116.4z M116.4,256.8H89.3v-1h27.1V256.8z M89.3,254.3h0.2
	h0.1h0.1h0.1H90h0.1h0.1l0.1,0h0.1l0.1,0l0.1,0.1l0.1,0l0.1,0.1l0.1,0.1l0.1,0.1l0.1,0.1l0.1,0.1l0.1,0.1L91,255l0.1,0.1l0,0.1v0.1
	v0.1v0.1v0.1v0.1v0.1v0.1v0.1v0.4v0.1v0.1v0.1v0.1v0.1v0.1v0.1v0.1l0,0.1l-0.1,0.1l-0.1,0.1l-0.1,0.1l-0.1,0.1l-0.1,0.1l-0.1,0.1
	l-0.1,0.1l-0.1,0.1l-0.1,0.1l-0.1,0h-0.1l-0.1,0h-0.1h-0.1H90h-0.1h-0.1h-0.1H89h-0.1h-0.1h-0.1h-0.1h-0.1h-0.1l-0.1,0h-0.1l-0.1,0
	l-0.1-0.1l-0.1-0.1l-0.1-0.1l-0.1-0.1l-0.1-0.1l-0.1-0.1l-0.1-0.1l-0.1-0.1l-0.1-0.1l-0.1-0.1V257v-0.1v-0.1v-0.1v-0.1v-0.1v-0.1
	v-0.1v-0.4v-0.1v-0.1v-0.1v-0.1v-0.1v-0.1v-0.1v-0.1l0.1-0.1l0.1-0.1l0.1-0.1l0.1-0.1l0.1-0.1l0.1-0.1l0.1-0.1l0.1-0.1l0.1-0.1
	l0.1,0l0.1-0.1l0.1,0h0.1l0.1,0h0.1h0.1h0.1h0.1H89h0.1H89.3z"/>
<path class="st9" d="M116.4,254.3h0.2h0.1h0.1h0.1h0.1h0.1h0.1l0.1,0h0.1l0.1,0l0.1,0.1l0.1,0l0.1,0.1l0.1,0.1l0.1,0.1l0.1,0.1
	l0.1,0.1l0.1,0.1l0.1,0.1v0.1l0,0.1l0,0.1v0.1v0.1v0.1v0.1v0.1v0.1v0.6v0.1v0.1v0.1v0.1v0.1v0.1l0,0.1l0,0.1v0.1l-0.1,0.1l-0.1,0.1
	l-0.1,0.1l-0.1,0.1l-0.1,0.1l-0.1,0.1l-0.1,0.1l-0.1,0.1l-0.1,0h-0.1l-0.1,0h-0.1h-0.1H117h-0.1h-0.1h-0.1h-0.6H116h-0.1h-0.1h-0.1
	h-0.1h-0.1l-0.1,0h-0.1l-0.1,0l-0.1-0.1l-0.1-0.1l-0.1-0.1l-0.1-0.1l-0.1-0.1l-0.1-0.1l-0.1-0.1l0-0.1l-0.1-0.1l0-0.1V257v-0.1v-0.1
	v-0.1v-0.1v-0.1v-0.1v-0.1v-0.4v-0.1v-0.1v-0.1v-0.1v-0.1v-0.1v-0.1v-0.1l0-0.1l0.1-0.1l0-0.1l0.1-0.1l0.1-0.1l0.1-0.1l0.1-0.1
	l0.1-0.1l0.1-0.1l0.1,0l0.1-0.1l0.1,0h0.1l0.1,0h0.1h0.1h0.1h0.1h0.1h0.1H116.4z M116.4,256.8H89.3v-1h27.1V256.8z M89.3,254.3h0.2
	h0.1h0.1h0.1H90h0.1h0.1l0.1,0h0.1l0.1,0l0.1,0.1l0.1,0l0.1,0.1l0.1,0.1l0.1,0.1l0.1,0.1l0.1,0.1l0.1,0.1L91,255l0.1,0.1l0,0.1v0.1
	v0.1v0.1v0.1v0.1v0.1v0.1v0.1v0.4v0.1v0.1v0.1v0.1v0.1v0.1v0.1v0.1l0,0.1l-0.1,0.1l-0.1,0.1l-0.1,0.1l-0.1,0.1l-0.1,0.1l-0.1,0.1
	l-0.1,0.1l-0.1,0.1l-0.1,0.1l-0.1,0h-0.1l-0.1,0h-0.1h-0.1H90h-0.1h-0.1h-0.1H89h-0.1h-0.1h-0.1h-0.1h-0.1h-0.1l-0.1,0h-0.1l-0.1,0
	l-0.1-0.1l-0.1-0.1l-0.1-0.1l-0.1-0.1l-0.1-0.1l-0.1-0.1l-0.1-0.1l-0.1-0.1l-0.1-0.1l-0.1-0.1V257v-0.1v-0.1v-0.1v-0.1v-0.1v-0.1
	v-0.1v-0.4v-0.1v-0.1v-0.1v-0.1v-0.1v-0.1v-0.1v-0.1l0.1-0.1l0.1-0.1l0.1-0.1l0.1-0.1l0.1-0.1l0.1-0.1l0.1-0.1l0.1-0.1l0.1-0.1
	l0.1,0l0.1-0.1l0.1,0h0.1l0.1,0h0.1h0.1h0.1h0.1H89h0.1H89.3z"/>
<path class="st6" d="M79.5,258.9c-1.4-1.4-1.4-3.7,0-5.2c0,0,0,0,0,0c0.2-0.2,0.2-0.5,0.1-0.7c-0.2-0.2-0.5-0.2-0.7-0.1
	c0,0,0,0-0.1,0.1c-1.8,1.8-1.8,4.7,0,6.6c0.2,0.2,0.5,0.1,0.7-0.1C79.6,259.4,79.6,259.1,79.5,258.9"/>
<path class="st6" d="M80.7,256.3c0-0.8,0.6-1.4,1.4-1.4c0.8,0,1.4,0.6,1.4,1.4c0,0.8-0.6,1.4-1.4,1.4c0,0,0,0,0,0
	C81.3,257.7,80.7,257.1,80.7,256.3L80.7,256.3"/>
<path class="st6" d="M81.2,256.3c0-0.5,0.4-0.9,0.9-0.9s0.9,0.4,0.9,0.9c0,0.5-0.4,0.9-0.9,0.9c0,0,0,0,0,0
	C81.6,257.2,81.2,256.8,81.2,256.3L81.2,256.3 M80.2,256.3c0,1,0.8,1.9,1.9,1.9c1,0,1.9-0.8,1.9-1.9c0-1-0.8-1.9-1.9-1.9
	c0,0,0,0,0,0C81,254.5,80.2,255.3,80.2,256.3L80.2,256.3z"/>
<path class="st6" d="M77.5,260.9c-2.5-2.5-2.5-6.6,0-9.1c0,0,0,0,0,0c0.2-0.2,0.2-0.5,0-0.7c-0.2-0.2-0.5-0.2-0.7,0
	c-2.9,2.9-2.9,7.6,0,10.5c0.2,0.2,0.5,0.2,0.7,0.1S77.7,261.1,77.5,260.9C77.6,260.9,77.5,260.9,77.5,260.9"/>
<path class="st6" d="M75.6,262.8c-3.6-3.6-3.6-9.4,0-13c0,0,0,0,0,0c0.2-0.2,0.2-0.5,0-0.7c-0.2-0.2-0.5-0.2-0.7,0
	c-4,4-4,10.4,0,14.4c0.2,0.2,0.5,0.2,0.7,0C75.7,263.3,75.7,263,75.6,262.8"/>
<path class="st5" d="M244.3,116.2c2.5-2.5,6.6-2.5,9.1,0c0.2,0.2,0.5,0.2,0.7,0c0.2-0.2,0.2-0.5,0-0.7c-2.9-2.9-7.6-2.9-10.5,0
	c-0.2,0.2-0.1,0.5,0.1,0.7C243.9,116.3,244.1,116.3,244.3,116.2"/>
<path class="st5" d="M242.3,114.2c3.6-3.6,9.4-3.6,13,0c0,0,0,0,0,0c0.2,0.2,0.5,0.1,0.7-0.1c0.2-0.2,0.2-0.4,0-0.6
	c-4-4-10.4-4-14.4,0c-0.2,0.2-0.1,0.5,0.1,0.7C241.9,114.4,242.2,114.4,242.3,114.2"/>
<path class="st5" d="M244.4,401.4c2.5-2.5,6.6-2.5,9.1,0c0.2,0.2,0.5,0.2,0.7,0.1c0.2-0.2,0.2-0.5,0.1-0.7c0,0,0,0-0.1-0.1
	c-2.9-2.9-7.6-2.9-10.5,0c-0.2,0.2-0.2,0.5-0.1,0.7C243.8,401.6,244.1,401.6,244.4,401.4C244.3,401.4,244.4,401.4,244.4,401.4"/>
<path class="st5" d="M242.4,399.4c3.6-3.6,9.4-3.6,13,0c0.2,0.2,0.5,0.2,0.7,0.1c0.2-0.2,0.2-0.5,0.1-0.7c0,0,0,0-0.1-0.1
	c-4-4-10.4-4-14.4,0c-0.2,0.2-0.2,0.5-0.1,0.7C241.8,399.6,242.1,399.7,242.4,399.4C242.4,399.5,242.4,399.5,242.4,399.4"/>
</svg>
