<?xml version="1.0" encoding="utf-8"?>
<!-- Generator: Adobe Illustrator 24.3.0, SVG Export Plug-In . SVG Version: 6.00 Build 0)  -->
<svg version="1.1" id="Layer_1" xmlns="http://www.w3.org/2000/svg" xmlns:xlink="http://www.w3.org/1999/xlink" x="0px" y="0px"
	 viewBox="0 0 510.9 233.9" style="enable-background:new 0 0 510.9 233.9;" xml:space="preserve">
<style type="text/css">
	.st0{fill:#FFFFFF;}
	.st1{fill:#5C5C5C;}
	.st2{fill:#2B2A29;}
	.st3{opacity:0.5;fill:#2B2A29;enable-background:new    ;}
	.st4{opacity:0.5;fill:#5C5C5C;enable-background:new    ;}
	.st5{fill-rule:evenodd;clip-rule:evenodd;fill:#5C5C5C;}
	.st6{fill-rule:evenodd;clip-rule:evenodd;fill:#2B2A29;}
	.st7{fill-rule:evenodd;clip-rule:evenodd;fill:#DF0920;}
	.st8{fill:#89A835;}
	.st9{fill:#DF0920;stroke:#2B2A29;stroke-width:0.22;stroke-miterlimit:22.93;}
</style>
<path class="st0" d="M393.2,0C456.5,0.5,504,47.3,510.1,103.9c7,64.2-38.2,119-96.7,128.1c-42,6.5-78-5.8-106.5-37.5
	c-41.5-46-82-92.9-123.6-138.8c-24.5-27-55.8-35.7-90.7-26.1S35.3,62.9,28,98.5c-11.8,56.6,30.6,108.9,87.7,109.3
	c27.2,0.2,50.3-9.9,68.6-30.3c4.8-5.4,9.5-10.9,14.4-16.2c5.7-6.1,13.1-6.7,18.8-1.8s6.2,12.9,0.7,18.8c-9.4,10.2-18.2,21.3-28.9,30
	c-68.6,55.8-173.9,15.3-187.8-71.8C-8.9,70.9,34.3,11,99.9,1.4c40.2-5.8,75.3,6.4,102.7,36.8c41.6,46,82.4,92.6,123.5,138.9
	c33.2,37.6,90.6,41.1,128.2,7.9s41.1-90.6,7.9-128.2s-90.6-41.1-128.2-7.9c-2.7,2.4-5.2,4.9-7.6,7.5c-5.2,5.8-10.1,11.8-15.6,17.3
	c-4.7,5-12.5,5.3-17.6,0.7c0,0,0,0,0,0c-5-4.4-6.4-11.9-2-17.1C304.7,41.3,318,25.1,337,14.8C354.3,5.4,373.6,0.3,393.2,0"/>
<path class="st1" d="M96.3,40.7c0.5,0,1-0.1,1.4-0.4c0.3-0.3,0.5-0.7,0.5-1.2c0-0.5-0.2-0.9-0.5-1.2c-0.4-0.3-0.9-0.4-1.4-0.4h-1.7
	v3.2H96.3z M96.3,37c0.7,0,1.4,0.2,1.9,0.6c0.5,0.4,0.7,1,0.7,1.6c0,0.6-0.2,1.2-0.7,1.6c-0.5,0.4-1.2,0.6-1.9,0.6h-1.7v2h-0.7V37
	L96.3,37z"/>
<path class="st1" d="M100.7,39.5c0.1-0.3,0.4-0.6,0.7-0.7c0.3-0.2,0.7-0.3,1.1-0.2v0.6h-0.1c-0.4,0-0.9,0.1-1.2,0.5
	c-0.3,0.4-0.4,0.8-0.4,1.3v2.4h-0.6v-4.8h0.6L100.7,39.5z"/>
<path class="st1" d="M105.4,39.1c-0.4,0-0.8,0.1-1.1,0.4c-0.3,0.3-0.5,0.7-0.5,1.1h3.4c0-0.4-0.2-0.8-0.5-1.1
	C106.3,39.2,105.9,39.1,105.4,39.1 M107.8,41.1h-4c0,0.5,0.2,0.9,0.6,1.2c0.4,0.3,0.8,0.5,1.3,0.5c0.3,0,0.6-0.1,0.8-0.2
	c0.2-0.1,0.5-0.3,0.6-0.5l0.4,0.4c-0.2,0.3-0.5,0.4-0.8,0.6c-0.3,0.1-0.7,0.2-1,0.2c-0.5,0-0.9-0.1-1.3-0.3
	c-0.4-0.2-0.7-0.5-0.9-0.9c-0.2-0.4-0.3-0.8-0.3-1.2c0-0.4,0.1-0.9,0.3-1.2c0.2-0.4,0.5-0.7,0.8-0.9c1.1-0.7,2.5-0.3,3.1,0.8
	c0,0,0,0.1,0,0.1c0.2,0.4,0.3,0.8,0.3,1.3L107.8,41.1z"/>
<rect x="108.8" y="40.6" class="st1" width="2.4" height="0.6"/>
<path class="st1" d="M119,39.5c0.1-0.3,0.4-0.6,0.7-0.7c0.3-0.2,0.7-0.3,1.1-0.2v0.6h-0.1c-0.4,0-0.9,0.1-1.2,0.5
	c-0.3,0.4-0.4,0.8-0.4,1.3v2.4h-0.6v-4.8h0.6L119,39.5z M114.7,42.8c0.3,0,0.6-0.1,0.9-0.2c0.3-0.2,0.5-0.4,0.6-0.6
	c0.3-0.6,0.3-1.3,0-1.9c-0.2-0.3-0.4-0.5-0.6-0.7c-0.3-0.1-0.6-0.2-0.9-0.2c-0.3,0-0.6,0.1-0.9,0.2c-0.3,0.2-0.5,0.4-0.6,0.7
	c-0.3,0.6-0.3,1.3,0,1.9c0.1,0.3,0.4,0.5,0.6,0.6C114,42.7,114.3,42.8,114.7,42.8 M114.7,43.4c-0.4,0-0.9-0.1-1.2-0.3
	c-0.4-0.2-0.7-0.5-0.9-0.9c-0.4-0.8-0.4-1.7,0-2.5c0.2-0.4,0.5-0.7,0.9-0.9c0.8-0.4,1.7-0.4,2.5,0c0.4,0.2,0.7,0.5,0.9,0.9
	c0.4,0.8,0.4,1.7,0,2.5c-0.2,0.4-0.5,0.7-0.9,0.9C115.5,43.2,115.1,43.4,114.7,43.4z"/>
<path class="st1" d="M134.1,39.5c0.1-0.3,0.4-0.6,0.7-0.7c0.3-0.2,0.7-0.3,1.1-0.2v0.6h-0.1c-0.4,0-0.9,0.1-1.2,0.5
	c-0.3,0.4-0.5,0.8-0.4,1.3v2.4h-0.6v-4.8h0.6L134.1,39.5z M129.9,39.1c-0.4,0-0.8,0.1-1.1,0.4c-0.3,0.3-0.5,0.7-0.5,1.1h3.4
	c0-0.4-0.2-0.8-0.5-1.1C130.7,39.2,130.3,39,129.9,39.1 M132.2,41.1h-4c0,0.5,0.2,0.9,0.6,1.2c0.4,0.3,0.8,0.5,1.3,0.5
	c0.3,0,0.6-0.1,0.8-0.2c0.3-0.1,0.5-0.3,0.6-0.5l0.4,0.4c-0.2,0.3-0.5,0.5-0.8,0.6c-0.3,0.1-0.7,0.2-1.1,0.2c-0.4,0-0.8-0.1-1.2-0.3
	c-0.4-0.2-0.7-0.5-0.9-0.9c-0.4-0.8-0.4-1.7,0-2.5c0.2-0.4,0.5-0.7,0.8-0.9c0.7-0.4,1.6-0.4,2.4,0c0.3,0.2,0.6,0.5,0.8,0.9
	c0.2,0.4,0.3,0.8,0.3,1.3L132.2,41.1z M123.8,42.8c0.3,0,0.6-0.1,0.9-0.2c0.3-0.2,0.5-0.4,0.6-0.6c0.3-0.6,0.3-1.3,0-1.9
	c-0.1-0.3-0.4-0.5-0.6-0.7c-0.3-0.2-0.6-0.2-0.9-0.2c-0.3,0-0.6,0.1-0.9,0.2c-0.3,0.2-0.5,0.4-0.6,0.7c-0.3,0.6-0.3,1.3,0,1.9
	c0.1,0.3,0.4,0.5,0.6,0.6C123.2,42.7,123.5,42.8,123.8,42.8 M126.2,36.6v6.7h-0.6v-0.9c-0.2,0.3-0.4,0.6-0.8,0.7
	c-0.3,0.2-0.7,0.3-1.1,0.3c-0.4,0-0.8-0.1-1.2-0.3c-0.4-0.2-0.7-0.5-0.9-0.9c-0.4-0.8-0.4-1.7,0-2.5c0.2-0.4,0.5-0.7,0.9-0.9
	c0.4-0.2,0.8-0.3,1.2-0.3c0.3,0,0.7,0.1,1,0.2c0.3,0.2,0.6,0.4,0.8,0.7v-2.9L126.2,36.6z"/>
<polygon class="st1" points="138.6,35.7 139.2,35.7 136.2,44.2 135.6,44.2 "/>
<path class="st1" d="M111.8,50.4c0.1-0.3,0.4-0.6,0.7-0.7c0.3-0.2,0.7-0.3,1.1-0.2v0.6h-0.2c-0.4,0-0.9,0.1-1.2,0.5
	c-0.3,0.4-0.5,0.8-0.4,1.3v2.4h-0.6v-4.8h0.6V50.4z M106.5,53.7c0.5,0,0.9-0.1,1.4-0.4c0.4-0.2,0.8-0.5,1-0.9
	c0.2-0.4,0.3-0.9,0.3-1.3c0-0.5-0.1-0.9-0.3-1.4c-0.2-0.4-0.6-0.7-1-0.9c-0.9-0.4-1.9-0.4-2.7,0c-0.4,0.2-0.8,0.5-1,0.9
	c-0.2,0.4-0.4,0.9-0.4,1.4c0,0.5,0.1,0.9,0.4,1.3c0.2,0.4,0.6,0.7,1,0.9C105.6,53.6,106,53.7,106.5,53.7 M106.5,54.3
	c-0.6,0-1.2-0.1-1.7-0.4c-0.5-0.3-0.9-0.7-1.2-1.1c-0.6-1-0.6-2.3,0-3.3c0.3-0.5,0.7-0.9,1.2-1.1c1.1-0.6,2.3-0.6,3.4,0
	c0.5,0.3,0.9,0.7,1.2,1.1c0.3,0.5,0.4,1.1,0.4,1.7c0,0.6-0.1,1.1-0.4,1.6c-0.3,0.5-0.7,0.9-1.2,1.2
	C107.7,54.2,107.1,54.3,106.5,54.3L106.5,54.3z"/>
<path class="st1" d="M127,50.4c0.1-0.3,0.4-0.6,0.7-0.7c0.3-0.2,0.7-0.3,1.1-0.2v0.6h-0.1c-0.4,0-0.9,0.1-1.2,0.5
	c-0.3,0.4-0.5,0.8-0.4,1.3v2.4h-0.6v-4.8h0.6L127,50.4z M122.7,50c-0.4,0-0.8,0.1-1.1,0.4c-0.3,0.3-0.5,0.7-0.5,1.1h3.4
	c0-0.4-0.2-0.8-0.5-1.1C123.6,50.1,123.2,50,122.7,50 M125,52.1h-4c0,0.5,0.2,0.9,0.6,1.2c0.4,0.3,0.8,0.5,1.3,0.5
	c0.3,0,0.6,0,0.8-0.2c0.2-0.1,0.5-0.3,0.6-0.5l0.4,0.4c-0.2,0.3-0.5,0.4-0.8,0.6c-0.8,0.3-1.6,0.3-2.3-0.1c-0.4-0.2-0.7-0.5-0.9-0.9
	c-0.4-0.8-0.4-1.7,0-2.5c0.2-0.4,0.5-0.7,0.8-0.9c0.4-0.2,0.8-0.3,1.2-0.3c0.4,0,0.8,0.1,1.2,0.3c0.3,0.2,0.6,0.5,0.8,0.9
	c0.2,0.4,0.3,0.8,0.3,1.3L125,52.1z M116.7,53.7c0.3,0,0.6-0.1,0.9-0.2c0.3-0.2,0.5-0.4,0.6-0.6c0.3-0.6,0.3-1.3,0-1.9
	c-0.1-0.3-0.4-0.5-0.6-0.7c-0.3-0.2-0.6-0.2-0.9-0.2c-0.3,0-0.6,0.1-0.9,0.2c-0.3,0.2-0.5,0.4-0.6,0.7c-0.3,0.6-0.3,1.3,0,1.9
	c0.1,0.3,0.4,0.5,0.6,0.6C116.1,53.6,116.4,53.7,116.7,53.7 M119.1,47.5v6.7h-0.6v-0.9c-0.2,0.3-0.4,0.6-0.8,0.7
	c-0.3,0.2-0.7,0.3-1.1,0.2c-0.4,0-0.8-0.1-1.2-0.3c-0.4-0.2-0.7-0.5-0.9-0.9c-0.4-0.8-0.4-1.7,0-2.5c0.2-0.4,0.5-0.7,0.9-0.9
	c0.4-0.2,0.8-0.3,1.2-0.3c0.3,0,0.7,0.1,1,0.2c0.3,0.2,0.6,0.4,0.8,0.7v-2.9L119.1,47.5z"/>
<path class="st2" d="M114.1,198.4c-0.4,0-0.9-0.1-1.3-0.3c-0.4-0.2-0.7-0.5-0.9-0.9c-0.4-0.8-0.4-1.7,0-2.5c0.2-0.4,0.5-0.7,0.9-0.9
	c0.4-0.2,0.8-0.3,1.3-0.3c0.4,0,0.8,0.1,1.1,0.2c0.3,0.2,0.6,0.4,0.8,0.7l-0.5,0.3c-0.1-0.2-0.4-0.4-0.6-0.5
	c-0.2-0.1-0.5-0.2-0.8-0.2c-0.3,0-0.6,0.1-0.9,0.2c-0.3,0.2-0.5,0.4-0.6,0.7c-0.2,0.3-0.2,0.7-0.2,1c0,0.3,0.1,0.7,0.2,1
	c0.1,0.3,0.4,0.5,0.6,0.7c0.3,0.2,0.6,0.2,0.9,0.2c0.3,0,0.5-0.1,0.8-0.2c0.2-0.1,0.4-0.3,0.6-0.5l0.5,0.3c-0.2,0.3-0.4,0.5-0.8,0.7
	C114.8,198.4,114.4,198.5,114.1,198.4 M108.9,198.5c-0.4,0-0.8-0.1-1.1-0.2c-0.3-0.1-0.6-0.2-0.8-0.4l0.3-0.5
	c0.2,0.2,0.5,0.3,0.8,0.4c0.3,0.1,0.6,0.2,0.9,0.2c0.3,0,0.7,0,1-0.2c0.2-0.1,0.3-0.3,0.3-0.6c0-0.2-0.1-0.3-0.2-0.4
	c-0.1-0.1-0.3-0.2-0.4-0.2c-0.2-0.1-0.5-0.1-0.7-0.1c-0.3-0.1-0.6-0.1-0.9-0.2c-0.2-0.1-0.4-0.2-0.6-0.4c-0.2-0.2-0.3-0.5-0.3-0.8
	c0-0.4,0.2-0.8,0.5-1c0.4-0.3,0.9-0.4,1.4-0.4c0.3,0,0.6,0,0.9,0.1c0.3,0.1,0.5,0.2,0.8,0.3l-0.3,0.5c-0.4-0.3-0.9-0.4-1.4-0.4
	c-0.3,0-0.6,0.1-0.9,0.2c-0.2,0.1-0.3,0.3-0.3,0.6c0,0.2,0.1,0.3,0.2,0.4c0.1,0.1,0.3,0.2,0.4,0.2c0.2,0.1,0.5,0.1,0.7,0.2
	c0.4,0.1,0.7,0.2,0.9,0.2c0.2,0.1,0.4,0.2,0.6,0.4c0.2,0.2,0.3,0.5,0.2,0.7c0,0.4-0.2,0.8-0.5,1C110,198.4,109.5,198.5,108.9,198.5
	 M105.6,192.6c-0.1,0-0.2,0-0.3-0.1c-0.2-0.2-0.2-0.4,0-0.6c0,0,0,0,0,0c0.1-0.1,0.2-0.1,0.3-0.1c0.1,0,0.2,0,0.3,0.1
	c0.1,0.1,0.1,0.2,0.1,0.3c0,0.1,0,0.2-0.1,0.3C105.8,192.6,105.7,192.7,105.6,192.6 M105.3,193.6h0.6v4.8h-0.6V193.6z M100.5,197.8
	c0.5,0,1-0.1,1.5-0.3c0.4-0.2,0.8-0.5,1-0.9c0.2-0.4,0.3-0.9,0.3-1.3c0-0.5-0.1-0.9-0.3-1.3c-0.2-0.4-0.6-0.7-1-0.9
	c-0.5-0.2-1-0.3-1.5-0.3h-1.9v5.2H100.5z M97.9,192.1h2.6c0.6,0,1.2,0.1,1.8,0.4c0.5,0.3,0.9,0.6,1.2,1.1c0.3,0.5,0.4,1.1,0.4,1.7
	c0,0.6-0.1,1.1-0.4,1.6c-0.3,0.5-0.7,0.9-1.2,1.1c-0.5,0.3-1.2,0.4-1.8,0.4h-2.6V192.1z"/>
<path class="st2" d="M119.1,197.9c0.3,0,0.6-0.1,0.9-0.2c0.3-0.2,0.5-0.4,0.6-0.7c0.3-0.6,0.3-1.3,0-1.9c-0.1-0.3-0.4-0.5-0.6-0.7
	c-0.3-0.2-0.6-0.2-0.9-0.2c-0.3,0-0.6,0.1-0.9,0.2c-0.3,0.2-0.5,0.4-0.6,0.7c-0.3,0.6-0.3,1.3,0,1.9c0.1,0.3,0.4,0.5,0.6,0.7
	C118.4,197.8,118.7,197.9,119.1,197.9 M119.1,198.4c-0.4,0-0.9-0.1-1.2-0.3c-0.4-0.2-0.7-0.5-0.9-0.9c-0.4-0.8-0.4-1.7,0-2.5
	c0.2-0.4,0.5-0.7,0.9-0.9c0.8-0.4,1.7-0.4,2.5,0c0.4,0.2,0.7,0.5,0.9,0.9c0.4,0.8,0.4,1.7,0,2.5c-0.2,0.4-0.5,0.7-0.9,0.9
	C119.9,198.3,119.5,198.4,119.1,198.4z"/>
<polygon class="st2" points="126.6,193.6 124.5,198.4 123.9,198.4 121.8,193.6 122.4,193.6 124.2,197.7 126,193.6 "/>
<path class="st2" d="M133.5,194.6c0.1-0.3,0.4-0.6,0.7-0.7c0.3-0.2,0.7-0.3,1.1-0.2v0.6h-0.1c-0.4,0-0.9,0.1-1.2,0.5
	c-0.3,0.4-0.4,0.8-0.4,1.3v2.4h-0.6v-4.8h0.6L133.5,194.6z M129.3,194.1c-0.4,0-0.8,0.1-1.1,0.4c-0.3,0.3-0.5,0.7-0.5,1.2h3.4
	c0-0.4-0.2-0.8-0.5-1.2C130.1,194.3,129.7,194.1,129.3,194.1 M131.6,196.2h-4c0,0.5,0.2,0.9,0.6,1.2c0.4,0.3,0.8,0.5,1.3,0.5
	c0.3,0,0.6-0.1,0.8-0.2c0.2-0.1,0.5-0.3,0.6-0.5l0.4,0.4c-0.2,0.3-0.5,0.5-0.8,0.6c-0.3,0.1-0.7,0.2-1.1,0.2c-0.5,0-0.9-0.1-1.3-0.3
	c-0.4-0.2-0.7-0.5-0.9-0.9c-0.4-0.8-0.4-1.7,0-2.5c0.2-0.4,0.5-0.7,0.8-0.9c0.7-0.4,1.6-0.4,2.4,0c0.3,0.2,0.6,0.5,0.8,0.8
	c0.2,0.4,0.3,0.8,0.3,1.3V196.2z"/>
<path class="st3" d="M62.1,207.8L72,208l-0.2,0.2l-0.2,0.2l-0.2,0.2l-0.2,0.2l-0.2,0.2l-0.2,0.2l-0.2,0.2l-0.2,0.2l-0.2,0.2
	l-0.1,0.2l-0.1,0.2l-0.1,0.2l-0.1,0.2l-0.1,0.2l-0.1,0.2l-0.1,0.2l-0.1,0.2l-0.1,0.2l-0.1,0.2l-0.1,0.2l-0.1,0.2l-0.1,0.2l-0.1,0.2
	v0.2v0.2v0.2v0.3v0.2v1L62.1,207.8z M66.5,209.1l14.1,6.5l-0.5,1.2L66,210.3L66.5,209.1z"/>
<path class="st4" d="M54.1,35.1l-4.3,8.9l-0.1-0.3l-0.1-0.2l-0.1-0.2l-0.1-0.2l-0.1-0.2l-0.1-0.2l-0.1-0.2L49.1,42L49,41.8l-0.2-0.2
	l-0.1-0.2l-0.1-0.2L48.4,41l-0.1-0.2l-0.2-0.2l-0.2-0.2l-0.2-0.2L47.6,40l-0.2-0.2l-0.2-0.2l-0.2-0.2l-0.2-0.1l-0.2-0.1l-0.2-0.1
	l-0.2-0.1l-0.2-0.1l-0.2-0.1l-0.2-0.1l-0.2-0.1l-0.2-0.1l-0.2-0.1l-0.2-0.1L54.1,35.1z M51.1,38.5L39.3,48.8l-0.8-1l11.7-10.2
	L51.1,38.5z"/>
<path class="st4" d="M194.4,49.2l-9.3-3.2l0.2-0.1l0.2-0.1l0.2-0.1l0.2-0.1l0.2-0.1l0.2-0.1l0.2-0.1l0.2-0.1l0.2-0.1l0.2-0.1
	l0.2-0.1l0.2-0.1l0.2-0.2l0.2-0.2l0.2-0.2l0.2-0.2l0.2-0.2l0.2-0.2l0.1-0.2L189,43l0.1-0.2l0.1-0.2l0.1-0.2l0.1-0.2l0.1-0.2l0.1-0.2
	l0.1-0.2l0.1-0.2L190,41l0.1-0.2l0.1-0.2l0.1-0.3L194.4,49.2z M190.6,46.6l-11.5-10.5l0.9-1l11.5,10.5L190.6,46.6z"/>
<path class="st3" d="M366.4,216.4l-9.8,0.6l0.2-0.2l0.2-0.2l0.2-0.2l0.2-0.2l0.2-0.2l0.2-0.2l0.1-0.2l0.1-0.2l0.1-0.2l0.1-0.2
	l0.1-0.2l0.1-0.2l0.1-0.2l0.1-0.2l0.1-0.2l0.1-0.2l0.1-0.2l0.1-0.2l0.1-0.2l0.1-0.2l0-0.2v-0.2V212v-0.2v-0.2v-1v-0.3V210v-0.3
	L366.4,216.4z M361.9,215.5l-14.6-5.3l0.4-1.2l14.6,5.3L361.9,215.5z"/>
<path class="st4" d="M354.9,22.3l6.5-7.4v0.8V16v0.2v0.3v0.2V17l0.1,0.2l0.1,0.2l0.1,0.2l0.1,0.2l0.1,0.2l0.1,0.2l0.1,0.2l0.1,0.2
	l0.1,0.2l0.1,0.2l0.1,0.2l0.1,0.2l0.1,0.2l0.1,0.2l0.1,0.2l0.2,0.2l0.2,0.2l0.2,0.2l0.2,0.2l0.2,0.2l0.2,0.2l0.2,0.2l0.2,0.2
	l0.2,0.2L354.9,22.3z M358.8,19.8l14-6.7l0.5,1.2l-14,6.7L358.8,19.8z"/>
<polygon class="st1" points="396.3,42.1 396.3,42.7 391.8,42.7 391.8,36.4 396.1,36.4 396.1,37 392.5,37 392.5,39.2 395.8,39.2 
	395.8,39.8 392.5,39.8 392.5,42.1 "/>
<path class="st1" d="M403.6,38.9c0.1-0.3,0.4-0.6,0.7-0.7c0.3-0.2,0.7-0.3,1.1-0.2v0.6h-0.2c-0.4,0-0.9,0.1-1.2,0.5
	c-0.3,0.4-0.5,0.8-0.4,1.3v2.4H403v-4.8h0.6L403.6,38.9z M399.1,42.2c0.3,0,0.7-0.1,0.9-0.2c0.3-0.2,0.5-0.4,0.6-0.7v-0.8h-1.5
	c-0.8,0-1.2,0.3-1.2,0.9c0,0.3,0.1,0.5,0.3,0.6C398.5,42.2,398.8,42.3,399.1,42.2 M399.3,37.9c0.5,0,1,0.1,1.4,0.5
	c0.4,0.4,0.5,0.9,0.5,1.4v3h-0.6V42c-0.2,0.3-0.4,0.5-0.6,0.6c-0.3,0.1-0.7,0.2-1,0.2c-0.5,0-0.9-0.1-1.3-0.4
	c-0.3-0.2-0.5-0.6-0.5-1c0-0.4,0.1-0.8,0.4-1c0.4-0.3,0.9-0.4,1.4-0.4h1.5v-0.3c0-0.4-0.1-0.7-0.3-1c-0.3-0.2-0.6-0.3-1-0.3
	c-0.3,0-0.6,0-0.9,0.1c-0.3,0.1-0.5,0.2-0.7,0.4l-0.3-0.5c0.3-0.2,0.6-0.4,0.9-0.5C398.6,37.9,399,37.9,399.3,37.9L399.3,37.9z"/>
<path class="st1" d="M409,37.9c0.5,0,1,0.2,1.4,0.5c0.4,0.4,0.6,1,0.5,1.5v2.8h-0.6V40c0-0.4-0.1-0.8-0.4-1.1
	c-0.3-0.3-0.7-0.4-1.1-0.4c-0.4,0-0.9,0.1-1.2,0.5c-0.3,0.3-0.5,0.8-0.5,1.3v2.5h-0.6v-4.8h0.6v0.9c0.2-0.3,0.4-0.5,0.7-0.7
	C408.2,38,408.6,37.9,409,37.9"/>
<polygon class="st1" points="386.4,47.3 387.1,47.3 387.1,53.1 390.6,53.1 390.6,53.7 386.4,53.7 "/>
<path class="st1" d="M393.4,53.1c0.3,0,0.6-0.1,0.9-0.2c0.3-0.2,0.5-0.4,0.6-0.6c0.3-0.6,0.3-1.3,0-1.9c-0.1-0.3-0.4-0.5-0.6-0.7
	c-0.3-0.2-0.6-0.2-0.9-0.2c-0.3,0-0.6,0.1-0.9,0.2c-0.3,0.2-0.5,0.4-0.6,0.7c-0.3,0.6-0.3,1.3,0,1.9c0.1,0.3,0.4,0.5,0.6,0.6
	C392.8,53,393.1,53.1,393.4,53.1 M393.4,53.7c-0.4,0-0.9-0.1-1.2-0.3c-0.4-0.2-0.7-0.5-0.9-0.9c-0.4-0.8-0.4-1.7,0-2.5
	c0.2-0.4,0.5-0.7,0.9-0.9c0.4-0.2,0.8-0.3,1.2-0.3c0.4,0,0.9,0.1,1.2,0.3c0.4,0.2,0.7,0.5,0.9,0.9c0.4,0.8,0.4,1.7,0,2.5
	c-0.2,0.4-0.5,0.7-0.9,0.9C394.3,53.6,393.9,53.7,393.4,53.7z"/>
<path class="st1" d="M401,48.9l-2.4,5.3c-0.1,0.4-0.4,0.7-0.7,1c-0.3,0.2-0.6,0.3-0.9,0.3c-0.2,0-0.4,0-0.6-0.1
	c-0.2-0.1-0.4-0.2-0.5-0.3l0.3-0.5c0.2,0.2,0.5,0.4,0.9,0.4c0.2,0,0.4-0.1,0.6-0.2c0.2-0.2,0.3-0.4,0.4-0.6l0.2-0.5l-2.1-4.8h0.6
	l1.8,4l1.8-4L401,48.9z"/>
<path class="st1" d="M412.1,53.4c-0.1,0.1-0.3,0.2-0.4,0.2c-0.2,0.1-0.4,0.1-0.6,0.1c-0.7,0.1-1.3-0.4-1.4-1.1c0-0.1,0-0.2,0-0.3
	v-2.9h-0.9v-0.5h0.9v-1h0.6v1h1.5v0.5h-1.5v2.9c0,0.2,0.1,0.5,0.2,0.6c0.2,0.2,0.4,0.2,0.6,0.2c0.1,0,0.3,0,0.4-0.1
	c0.1,0,0.2-0.1,0.3-0.2L412.1,53.4z M407.1,46.9h0.6v6.7h-0.6L407.1,46.9z M403.2,53.2c0.3,0,0.7-0.1,0.9-0.2
	c0.3-0.2,0.5-0.4,0.6-0.7v-0.8h-1.5c-0.8,0-1.2,0.3-1.2,0.9c0,0.3,0.1,0.5,0.3,0.6C402.6,53.1,402.9,53.2,403.2,53.2 M403.5,48.9
	c0.5,0,1,0.1,1.4,0.5c0.4,0.4,0.5,0.9,0.5,1.4v3h-0.6v-0.7c-0.2,0.2-0.4,0.5-0.6,0.6c-0.3,0.1-0.7,0.2-1,0.2c-0.5,0-0.9-0.1-1.3-0.4
	c-0.3-0.2-0.5-0.6-0.5-1c0-0.4,0.1-0.8,0.4-1c0.4-0.3,0.9-0.4,1.4-0.4h1.5v-0.3c0-0.3-0.1-0.7-0.4-0.9c-0.3-0.2-0.6-0.3-1-0.3
	c-0.3,0-0.6,0-0.9,0.1c-0.3,0.1-0.5,0.2-0.7,0.4l-0.3-0.5c0.3-0.2,0.6-0.4,0.9-0.5C402.8,48.9,403.1,48.9,403.5,48.9z"/>
<path class="st1" d="M417.2,48.9l-2.4,5.3c-0.1,0.4-0.4,0.7-0.7,1c-0.3,0.2-0.6,0.3-0.9,0.3c-0.2,0-0.4,0-0.6-0.1
	c-0.2-0.1-0.4-0.2-0.5-0.3l0.3-0.5c0.2,0.2,0.5,0.4,0.9,0.4c0.2,0,0.4-0.1,0.6-0.2c0.2-0.2,0.3-0.4,0.4-0.6l0.2-0.5l-2.1-4.8h0.7
	l1.8,4l1.8-4L417.2,48.9z"/>
<path class="st2" d="M396.4,194.7c0.5,0,1-0.1,1.4-0.4c0.3-0.3,0.5-0.7,0.5-1.2c0-0.5-0.2-0.9-0.5-1.2c-0.4-0.3-0.9-0.4-1.4-0.4
	h-1.7v3.2H396.4z M396.4,191c0.7,0,1.4,0.2,1.9,0.6c0.5,0.4,0.7,1,0.7,1.6c0,0.6-0.2,1.2-0.7,1.6c-0.5,0.4-1.2,0.6-1.9,0.6h-1.7v2
	H394V191L396.4,191z"/>
<path class="st2" d="M401.7,196.9c0.3,0,0.7-0.1,0.9-0.2c0.3-0.2,0.5-0.4,0.6-0.7v-0.8h-1.5c-0.8,0-1.2,0.3-1.2,0.8
	c0,0.3,0.1,0.5,0.3,0.7C401.1,196.8,401.4,196.8,401.7,196.9 M401.9,192.5c0.5,0,1,0.1,1.4,0.5c0.4,0.4,0.5,0.9,0.5,1.4v3h-0.6v-0.7
	c-0.1,0.3-0.4,0.5-0.6,0.6c-0.3,0.1-0.7,0.2-1,0.2c-0.5,0-0.9-0.1-1.3-0.4c-0.3-0.2-0.5-0.6-0.5-1c0-0.4,0.1-0.8,0.4-1
	c0.4-0.3,0.9-0.4,1.4-0.4h1.5v-0.3c0-0.3-0.1-0.7-0.3-0.9c-0.3-0.2-0.6-0.3-1-0.3c-0.3,0-0.6,0-0.9,0.1c-0.3,0.1-0.5,0.2-0.7,0.4
	l-0.3-0.5c0.3-0.2,0.6-0.4,0.9-0.5C401.2,192.6,401.6,192.5,401.9,192.5L401.9,192.5z"/>
<path class="st2" d="M409.5,192.6l-2.4,5.3c-0.1,0.4-0.4,0.7-0.7,1c-0.3,0.2-0.6,0.3-0.9,0.3c-0.2,0-0.4,0-0.6-0.1
	c-0.2-0.1-0.4-0.2-0.5-0.3l0.3-0.5c0.2,0.2,0.5,0.4,0.9,0.4c0.2,0,0.4-0.1,0.6-0.2c0.2-0.2,0.3-0.4,0.4-0.6l0.2-0.5l-2.1-4.8h0.7
	l1.8,4l1.8-4L409.5,192.6z"/>
<path class="st5" d="M114,13.5c1.4-1.4,3.7-1.4,5.2,0c0,0,0,0,0,0c0.2,0.2,0.5,0.2,0.7,0.1c0.2-0.2,0.2-0.5,0.1-0.7c0,0,0,0-0.1-0.1
	c-1.8-1.8-4.7-1.8-6.6,0c-0.2,0.2-0.2,0.5-0.1,0.7C113.4,13.7,113.7,13.8,114,13.5C113.9,13.6,114,13.5,114,13.5"/>
<path class="st5" d="M116.6,14.7c0.8,0,1.4,0.6,1.4,1.4c0,0.8-0.6,1.4-1.4,1.4c-0.8,0-1.4-0.6-1.4-1.4c0,0,0,0,0,0
	C115.2,15.3,115.8,14.7,116.6,14.7C116.6,14.7,116.6,14.7,116.6,14.7"/>
<path class="st5" d="M116.6,15.2c0.5,0,0.9,0.4,0.9,0.9c0,0.5-0.4,0.9-0.9,0.9s-0.9-0.4-0.9-0.9c0,0,0,0,0,0
	C115.7,15.6,116.1,15.2,116.6,15.2C116.6,15.2,116.6,15.2,116.6,15.2 M116.6,14.2c-1,0-1.9,0.8-1.9,1.9c0,1,0.8,1.9,1.9,1.9
	c1,0,1.9-0.8,1.9-1.9l0,0C118.4,15.1,117.6,14.2,116.6,14.2L116.6,14.2z"/>
<path class="st5" d="M399.2,13.5c1.4-1.4,3.7-1.4,5.2,0c0,0,0,0,0,0c0.2,0.2,0.5,0.2,0.7,0c0.2-0.2,0.2-0.5,0-0.7c0,0,0,0,0,0
	c-1.8-1.8-4.7-1.8-6.5,0c0,0,0,0,0,0c-0.2,0.2-0.1,0.5,0.1,0.7C398.8,13.6,399,13.6,399.2,13.5"/>
<path class="st5" d="M401.8,14.6c0.8,0,1.4,0.6,1.4,1.4c0,0.8-0.6,1.4-1.4,1.4c-0.8,0-1.4-0.6-1.4-1.4
	C400.4,15.3,401,14.7,401.8,14.6C401.8,14.7,401.8,14.7,401.8,14.6"/>
<path class="st5" d="M401.8,15.1c0.5,0,0.9,0.4,0.9,0.9c0,0.5-0.4,0.9-0.9,0.9c-0.5,0-0.9-0.4-0.9-0.9l0,0
	C400.9,15.5,401.3,15.1,401.8,15.1C401.8,15.1,401.8,15.1,401.8,15.1 M401.8,14.1c-1,0-1.9,0.8-1.9,1.9s0.8,1.9,1.9,1.9
	s1.9-0.8,1.9-1.9l0,0C403.7,15,402.8,14.2,401.8,14.1L401.8,14.1z"/>
<path class="st6" d="M404.4,218.4c-1.4,1.4-3.7,1.4-5.2,0c0,0,0,0,0,0c-0.2-0.2-0.5-0.2-0.7,0c-0.2,0.2-0.2,0.5,0,0.7
	c1.8,1.8,4.7,1.8,6.5,0c0.2-0.2,0.2-0.5,0-0.7c0,0,0,0,0,0C404.9,218.2,404.6,218.2,404.4,218.4"/>
<path class="st6" d="M401.8,217.2c-0.8,0-1.4-0.6-1.4-1.4c0-0.8,0.6-1.4,1.4-1.4c0.8,0,1.4,0.6,1.4,1.4c0,0,0,0,0,0
	C403.2,216.5,402.6,217.2,401.8,217.2L401.8,217.2"/>
<path class="st6" d="M401.8,216.7c-0.5,0-0.9-0.4-0.9-0.9s0.4-0.9,0.9-0.9c0.5,0,0.9,0.4,0.9,0.9c0,0,0,0,0,0
	C402.7,216.3,402.3,216.7,401.8,216.7L401.8,216.7 M401.8,217.7c1,0,1.9-0.8,1.9-1.9c0-1-0.8-1.9-1.9-1.9c-1,0-1.9,0.8-1.9,1.9
	C399.9,216.8,400.8,217.7,401.8,217.7L401.8,217.7z"/>
<path class="st6" d="M406.3,220.3c-2.5,2.5-6.6,2.5-9.1,0c-0.2-0.2-0.5-0.1-0.7,0.1c-0.2,0.2-0.2,0.4,0,0.6c2.9,2.9,7.6,2.9,10.5,0
	c0.2-0.2,0.1-0.5-0.1-0.7C406.8,220.2,406.5,220.2,406.3,220.3"/>
<path class="st6" d="M408.3,222.3c-3.6,3.6-9.4,3.6-13,0c0,0,0,0,0,0c-0.2-0.2-0.5-0.2-0.7,0c-0.2,0.2-0.2,0.5,0,0.7
	c4,4,10.4,4,14.4,0c0.2-0.2,0.2-0.5,0-0.7S408.5,222.1,408.3,222.3L408.3,222.3"/>
<path class="st6" d="M119.2,221.5c-1.4,1.4-3.7,1.4-5.2,0c0,0,0,0,0,0c-0.2-0.2-0.5-0.1-0.7,0.1c-0.2,0.2-0.2,0.4,0,0.6
	c1.8,1.8,4.7,1.8,6.6,0c0.2-0.2,0.2-0.5,0.1-0.7C119.8,221.3,119.4,221.2,119.2,221.5C119.2,221.4,119.2,221.4,119.2,221.5"/>
<path class="st6" d="M116.6,220.3c-0.8,0-1.4-0.6-1.4-1.4c0-0.8,0.6-1.4,1.4-1.4c0.8,0,1.4,0.6,1.4,1.4c0,0,0,0,0,0
	C118,219.6,117.4,220.3,116.6,220.3C116.6,220.3,116.6,220.3,116.6,220.3"/>
<path class="st6" d="M116.6,219.8c-0.5,0-0.9-0.4-0.9-0.9s0.4-0.9,0.9-0.9c0.5,0,0.9,0.4,0.9,0.9c0,0,0,0,0,0
	C117.5,219.4,117.1,219.8,116.6,219.8C116.6,219.8,116.6,219.8,116.6,219.8 M116.6,220.8c1,0,1.9-0.8,1.9-1.9c0-1-0.8-1.9-1.9-1.9
	c-1,0-1.9,0.8-1.9,1.9l0,0C114.7,219.9,115.6,220.7,116.6,220.8L116.6,220.8z"/>
<path class="st6" d="M121.1,223.4c-2.5,2.5-6.6,2.5-9.1,0c-0.2-0.2-0.5-0.2-0.7,0c0,0,0,0,0,0c-0.2,0.2-0.2,0.5,0,0.7
	c2.9,2.9,7.6,2.8,10.4,0c0.2-0.2,0.2-0.5,0-0.7C121.6,223.2,121.3,223.2,121.1,223.4C121.1,223.4,121.1,223.4,121.1,223.4"/>
<path class="st6" d="M123.1,225.4c-3.6,3.6-9.4,3.6-13,0c0,0,0,0,0,0c-0.2-0.2-0.5-0.1-0.7,0.1c-0.2,0.2-0.2,0.4,0,0.6
	c4,4,10.4,4,14.4,0c0,0,0,0,0,0c0.2-0.2,0.2-0.5,0.1-0.7C123.7,225.2,123.4,225.1,123.1,225.4C123.2,225.3,123.1,225.4,123.1,225.4"
	/>
<path class="st7" d="M254.8,83.1c18.7,0,33.9,15.2,33.9,33.9s-15.2,33.9-33.9,33.9s-33.9-15.2-33.9-33.9l0,0
	C220.9,98.2,236.1,83.1,254.8,83.1"/>
<polygon class="st0" points="247.6,106.7 245.1,114.2 244.3,114.2 242.1,107.8 239.9,114.2 239.1,114.2 236.5,106.7 237.4,106.7 
	239.5,113.1 241.7,106.7 242.5,106.7 244.7,113.2 246.9,106.7 "/>
<path class="st0" d="M272.5,113.5v0.7h-5.3v-7.5h5.1v0.7H268v2.7h3.9v0.7H268v2.8L272.5,113.5z M260.9,106.7h0.8v6.8h4.2v0.7h-5
	L260.9,106.7z M257.7,106.7h0.8v7.5h-0.8V106.7z M255.3,106.7v7.5h-0.8v-3.4h-4.7v3.4H249v-7.5h0.8v3.4h4.7v-3.3L255.3,106.7z"/>
<path class="st0" d="M273.3,123.3h0.8v2.8c-0.4,0.3-0.8,0.6-1.2,0.7c-0.5,0.2-1,0.2-1.5,0.2c-0.7,0-1.4-0.2-2-0.5
	c-0.6-0.3-1.1-0.8-1.4-1.4c-0.3-0.6-0.5-1.3-0.5-1.9c0-0.7,0.2-1.4,0.5-2c0.3-0.6,0.8-1,1.4-1.3c0.6-0.3,1.3-0.5,2-0.5
	c0.5,0,1.1,0.1,1.6,0.3c0.5,0.2,0.9,0.5,1.2,0.8l-0.5,0.5c-0.6-0.6-1.4-0.9-2.2-0.9c-0.6,0-1.1,0.1-1.6,0.4
	c-0.5,0.3-0.9,0.6-1.1,1.1c-0.3,0.5-0.4,1-0.4,1.6c0,1.1,0.6,2.2,1.6,2.7c1.1,0.6,2.5,0.5,3.6-0.2L273.3,123.3z M265.6,119.6v7.5
	H265l-4.8-6v6h-0.8v-7.5h0.6l4.8,6.1v-6.1L265.6,119.6z M256.1,119.6h0.8v7.5h-0.8V119.6z M253.7,119.6v7.5h-0.6l-4.8-6v6h-0.8v-7.5
	h0.6l4.8,6.1v-6.1L253.7,119.6z M244.3,119.6h0.8v7.5h-0.8V119.6z M238.4,126.4c0.6,0,1.2-0.1,1.7-0.4c0.5-0.2,0.9-0.6,1.1-1.1
	c0.3-0.5,0.4-1,0.4-1.6c0-0.6-0.1-1.1-0.4-1.6c-0.3-0.5-0.7-0.8-1.1-1.1c-0.5-0.3-1.1-0.4-1.7-0.4h-2.2v6.1L238.4,126.4z
	 M235.4,119.6h3c0.7,0,1.4,0.1,2.1,0.5c0.6,0.3,1.1,0.8,1.4,1.3c0.3,0.6,0.5,1.3,0.5,1.9c0,0.7-0.2,1.3-0.5,1.9
	c-0.3,0.6-0.8,1-1.4,1.3c-0.6,0.3-1.4,0.5-2.1,0.5h-3V119.6z"/>
<path class="st7" d="M116.1,83.1c18.7,0,33.9,15.2,33.9,33.9s-15.2,33.9-33.9,33.9s-33.9-15.2-33.9-33.9l0,0
	C82.2,98.2,97.4,83.1,116.1,83.1"/>
<path class="st0" d="M110.2,107.4v2.9h3.9v0.7h-3.9v3.2h-0.8v-7.5h5.1v0.7L110.2,107.4z M107.5,113.5v0.7h-5.3v-7.5h5.1v0.7H103v2.7
	h3.9v0.7H103v2.8L107.5,113.5z M97.6,113.5c0.5,0,1.1-0.1,1.5-0.3c0.3-0.2,0.5-0.6,0.5-1.1c0-0.9-0.7-1.4-2-1.4H95v2.8L97.6,113.5z
	 M95,107.4v2.7h2.4c0.5,0,1-0.1,1.4-0.3c0.3-0.2,0.5-0.6,0.5-1c0-0.4-0.2-0.8-0.5-1c-0.4-0.2-0.9-0.4-1.4-0.3L95,107.4z M98.9,110.4
	c0.4,0.1,0.8,0.3,1.1,0.6c0.3,0.4,0.4,0.8,0.4,1.2c0,0.6-0.2,1.1-0.7,1.5c-0.6,0.4-1.4,0.6-2.1,0.5h-3.4v-7.5h3.2
	c0.7,0,1.4,0.1,1.9,0.5c0.5,0.3,0.7,0.9,0.7,1.4c0,0.4-0.1,0.7-0.3,1C99.5,110,99.2,110.2,98.9,110.4z"/>
<path class="st0" d="M138,113.5v0.7h-5.3v-7.5h5.1v0.7h-4.3v2.6h3.9v0.7h-3.9v2.8L138,113.5z M127.8,111.2c0.6,0,1.2-0.1,1.7-0.5
	c0.8-0.7,0.8-2,0.1-2.7c0,0,0,0-0.1-0.1c-0.5-0.3-1.1-0.5-1.7-0.5h-2v3.8H127.8z M130.1,114.2l-1.7-2.4c-0.2,0-0.4,0-0.6,0h-2v2.4
	H125v-7.5h2.8c0.8,0,1.6,0.2,2.2,0.7c0.5,0.5,0.8,1.2,0.8,1.9c0,0.5-0.1,1-0.4,1.5c-0.3,0.4-0.8,0.7-1.3,0.9l1.8,2.6L130.1,114.2z
	 M119.3,113.5c0.6,0,1.1-0.1,1.6-0.4c0.5-0.3,0.9-0.6,1.1-1.1c0.3-0.5,0.4-1,0.4-1.6c0-0.6-0.1-1.1-0.4-1.6
	c-0.3-0.5-0.7-0.9-1.1-1.1c-1-0.5-2.2-0.5-3.2,0c-0.5,0.3-0.9,0.6-1.1,1.1c-0.3,0.5-0.4,1-0.4,1.6c0,0.6,0.1,1.1,0.4,1.6
	c0.3,0.5,0.7,0.9,1.1,1.1C118.2,113.4,118.8,113.5,119.3,113.5 M119.3,114.2c-0.7,0-1.4-0.2-2-0.5c-0.6-0.3-1.1-0.8-1.4-1.4
	c-0.4-0.6-0.5-1.3-0.5-1.9c0-0.7,0.2-1.4,0.5-1.9c0.3-0.6,0.8-1,1.4-1.4c1.3-0.6,2.7-0.6,4,0c0.6,0.3,1.1,0.8,1.4,1.3
	c0.3,0.6,0.5,1.3,0.5,2c0,0.7-0.2,1.4-0.5,1.9c-0.3,0.6-0.8,1.1-1.4,1.4C120.7,114.1,120,114.3,119.3,114.2L119.3,114.2z"/>
<path class="st0" d="M134.6,123.4h0.8v2.8c-0.4,0.3-0.8,0.6-1.2,0.7c-0.5,0.2-1,0.2-1.5,0.2c-0.7,0-1.4-0.2-2-0.5
	c-0.6-0.3-1.1-0.8-1.4-1.4c-0.3-0.6-0.5-1.3-0.5-1.9c0-0.7,0.2-1.4,0.5-2c0.3-0.6,0.8-1,1.4-1.3c0.6-0.3,1.3-0.5,2-0.5
	c0.5,0,1.1,0.1,1.6,0.3c0.5,0.2,0.9,0.5,1.2,0.8l-0.5,0.5c-0.6-0.6-1.4-0.9-2.2-0.9c-0.6,0-1.1,0.1-1.6,0.4
	c-0.5,0.3-0.9,0.6-1.1,1.1c-0.3,0.5-0.4,1-0.4,1.6c0,1.1,0.6,2.2,1.6,2.7c1.1,0.6,2.5,0.5,3.6-0.2L134.6,123.4z M126.9,119.6v7.4
	h-0.6l-4.8-6.1v6.1h-0.8v-7.5h0.6l4.8,6.1v-6.1L126.9,119.6z M117.4,119.6h0.8v7.4h-0.8V119.6z M115,119.6v7.4h-0.6l-4.8-6.1v6.1
	h-0.8v-7.5h0.6l4.8,6.1v-6.1L115,119.6z M105.6,119.6h0.8v7.4h-0.8V119.6z M99.8,126.4c0.6,0,1.2-0.1,1.7-0.4
	c0.5-0.2,0.9-0.6,1.1-1.1c0.3-0.5,0.4-1,0.4-1.6c0-0.6-0.1-1.1-0.4-1.6c-0.3-0.5-0.7-0.8-1.1-1.1c-0.5-0.3-1.1-0.4-1.7-0.4h-2.2v6.1
	L99.8,126.4z M96.8,119.6h3c0.7,0,1.4,0.1,2.1,0.5c0.6,0.3,1.1,0.8,1.4,1.3c0.3,0.6,0.5,1.3,0.5,1.9c0,0.7-0.2,1.3-0.5,1.9
	c-0.3,0.6-0.8,1-1.4,1.3c-0.7,0.3-1.4,0.5-2.1,0.4h-3V119.6z"/>
<path class="st7" d="M399.4,83.1c18.7,0,33.9,15.2,33.9,33.9s-15.2,33.9-33.9,33.9c-18.7,0-33.9-15.2-33.9-33.9l0,0
	C365.6,98.2,380.7,83.1,399.4,83.1"/>
<path class="st0" d="M391.6,107.4v2.9h3.9v0.7h-3.9v3.2h-0.8v-7.5h5.1v0.7L391.6,107.4z M387.6,111.5l-1.8-4l-1.8,4H387.6z
	 M387.9,112.2h-4.2l-0.9,2h-0.8l3.4-7.5h0.8l3.4,7.5h-0.9L387.9,112.2z"/>
<path class="st0" d="M413.7,111.1c0.6,0,1.2-0.1,1.7-0.5c0.4-0.3,0.6-0.8,0.6-1.4c0-0.5-0.2-1.1-0.6-1.4c-0.5-0.3-1.1-0.5-1.7-0.5
	h-2v3.7H413.7z M416,114.1l-1.7-2.4c-0.2,0-0.4,0-0.6,0h-2v2.4h-0.8v-7.5h2.8c0.8,0,1.6,0.2,2.2,0.7c0.5,0.5,0.8,1.2,0.8,1.9
	c0,0.5-0.1,1-0.4,1.5c-0.3,0.4-0.8,0.7-1.3,0.9l1.8,2.6L416,114.1z M409,113.5v0.7h-5.2v-7.5h5.1v0.7h-4.3v2.7h3.9v0.7h-3.9v2.8
	L409,113.5z M399.1,107.4h-2.6v-0.7h6v0.7h-2.6v6.8H399L399.1,107.4z"/>
<path class="st0" d="M418,123.3h0.8v2.8c-0.4,0.3-0.8,0.6-1.2,0.7c-0.5,0.2-1,0.2-1.5,0.2c-0.7,0-1.4-0.2-2-0.5
	c-0.6-0.3-1.1-0.8-1.4-1.4c-0.3-0.6-0.5-1.3-0.5-1.9c0-0.7,0.2-1.4,0.5-2c0.3-0.6,0.8-1,1.4-1.4c0.6-0.3,1.3-0.5,2-0.5
	c0.5,0,1.1,0.1,1.6,0.3c0.5,0.2,0.9,0.5,1.2,0.8l-0.5,0.5c-0.6-0.6-1.4-0.9-2.2-0.9c-0.6,0-1.1,0.1-1.6,0.4
	c-0.5,0.3-0.9,0.6-1.1,1.1c-0.3,0.5-0.4,1-0.4,1.6c0,0.6,0.1,1.1,0.4,1.6c0.3,0.5,0.7,0.9,1.1,1.1c1.1,0.6,2.5,0.5,3.6-0.2V123.3z
	 M410.3,119.6v7.5h-0.6l-4.8-6v6H404v-7.5h0.6l4.8,6.1v-6.1L410.3,119.6z M400.8,119.6h0.8v7.5h-0.8L400.8,119.6z M398.4,119.6v7.5
	h-0.6l-4.8-6v6h-0.8v-7.5h0.6l4.8,6.1v-6.1L398.4,119.6z M388.9,119.6h0.8v7.5h-0.8V119.6z M383.1,126.4c0.6,0,1.2-0.1,1.7-0.4
	c0.5-0.2,0.9-0.6,1.1-1.1c0.3-0.5,0.4-1,0.4-1.6c0-0.6-0.1-1.1-0.4-1.6c-0.3-0.5-0.7-0.8-1.2-1.1c-0.5-0.3-1.1-0.4-1.7-0.4h-2.2v6.1
	L383.1,126.4z M380.1,119.6h3c0.7,0,1.4,0.1,2.1,0.5c0.6,0.3,1.1,0.8,1.4,1.3c0.3,0.6,0.5,1.3,0.5,1.9c0,0.7-0.2,1.3-0.5,1.9
	c-0.3,0.6-0.8,1-1.4,1.3c-0.6,0.3-1.4,0.5-2.1,0.5h-3V119.6z"/>
<path class="st2" d="M54,117.9l-1.1,1v1.4h-0.6v-6.7h0.6v4.6l2.8-2.6h0.8l-2,1.9l2.2,2.8H56L54,117.9z M48.5,119.7
	c0.3,0,0.6-0.1,0.9-0.2c0.3-0.2,0.5-0.4,0.6-0.7c0.3-0.6,0.3-1.3,0-1.9c-0.1-0.3-0.4-0.5-0.6-0.7c-0.3-0.2-0.6-0.2-0.9-0.2
	c-0.3,0-0.6,0.1-0.9,0.2c-0.3,0.2-0.5,0.4-0.6,0.7c-0.3,0.6-0.3,1.3,0,1.9c0.1,0.3,0.4,0.5,0.6,0.7
	C47.9,119.7,48.2,119.7,48.5,119.7 M48.5,120.3c-0.4,0-0.9-0.1-1.2-0.3c-0.4-0.2-0.7-0.5-0.9-0.9c-0.4-0.8-0.4-1.7,0-2.5
	c0.2-0.4,0.5-0.7,0.9-0.9c0.8-0.4,1.7-0.4,2.5,0c0.4,0.2,0.7,0.5,0.9,0.9c0.4,0.8,0.4,1.7,0,2.5c-0.2,0.4-0.5,0.7-0.9,0.9
	C49.4,120.2,49,120.3,48.5,120.3z M42.9,119.7c0.3,0,0.6-0.1,0.9-0.2c0.3-0.2,0.5-0.4,0.6-0.7c0.3-0.6,0.3-1.3,0-1.9
	c-0.1-0.3-0.4-0.5-0.6-0.7c-0.3-0.2-0.6-0.2-0.9-0.2c-0.3,0-0.6,0.1-0.9,0.2c-0.3,0.2-0.5,0.4-0.6,0.7c-0.3,0.6-0.3,1.3,0,1.9
	c0.1,0.3,0.4,0.5,0.6,0.7C42.2,119.7,42.6,119.7,42.9,119.7 M42.9,120.3c-0.4,0-0.9-0.1-1.2-0.3c-0.4-0.2-0.7-0.5-0.9-0.9
	c-0.4-0.8-0.4-1.7,0-2.5c0.2-0.4,0.5-0.7,0.9-0.9c0.4-0.2,0.8-0.3,1.2-0.3c0.4,0,0.9,0.1,1.2,0.3c0.4,0.2,0.7,0.5,0.9,0.9
	c0.4,0.8,0.4,1.7,0,2.5c-0.2,0.4-0.5,0.7-0.9,0.9C43.7,120.2,43.3,120.3,42.9,120.3z M37.1,119.7c0.4,0,0.9-0.1,1.3-0.3
	c0.3-0.2,0.5-0.5,0.4-0.9c0-0.8-0.6-1.2-1.7-1.2h-2.2v2.4L37.1,119.7z M34.9,114.5v2.3h2c0.4,0,0.8-0.1,1.2-0.3
	c0.3-0.2,0.4-0.5,0.4-0.9c0-0.3-0.1-0.7-0.4-0.9c-0.4-0.2-0.8-0.3-1.2-0.3H34.9z M38.2,117c0.4,0.1,0.7,0.2,1,0.5
	c0.2,0.3,0.3,0.6,0.3,1c0,0.5-0.2,1-0.6,1.2c-0.5,0.3-1.2,0.5-1.8,0.5h-2.9v-6.3H37c0.6,0,1.2,0.1,1.6,0.4c0.4,0.3,0.6,0.7,0.6,1.2
	c0,0.3-0.1,0.6-0.2,0.9C38.8,116.7,38.5,116.9,38.2,117z"/>
<path class="st6" d="M13.5,119.5c-1.4-1.4-1.4-3.7,0-5.2c0,0,0,0,0,0c0.2-0.2,0.2-0.5,0-0.7c-0.2-0.2-0.5-0.2-0.7,0
	c-1.8,1.8-1.8,4.7,0,6.6c0.2,0.2,0.5,0.2,0.7,0.1C13.7,120.1,13.7,119.8,13.5,119.5C13.5,119.6,13.5,119.5,13.5,119.5"/>
<path class="st6" d="M14.7,116.9c0-0.8,0.6-1.4,1.4-1.4c0.8,0,1.4,0.6,1.4,1.4c0,0.8-0.6,1.4-1.4,1.4c0,0,0,0,0,0
	C15.3,118.3,14.7,117.7,14.7,116.9C14.7,116.9,14.7,116.9,14.7,116.9"/>
<path class="st6" d="M15.2,116.9c0-0.5,0.4-0.9,0.9-0.9c0.5,0,0.9,0.4,0.9,0.9c0,0.5-0.4,0.9-0.9,0.9c0,0,0,0,0,0
	C15.6,117.8,15.2,117.4,15.2,116.9C15.2,116.9,15.2,116.9,15.2,116.9 M14.2,116.9c0,1,0.8,1.9,1.8,1.9c1,0,1.9-0.8,1.9-1.8
	s-0.8-1.9-1.8-1.9c0,0,0,0,0,0C15,115.1,14.2,115.9,14.2,116.9L14.2,116.9z"/>
<path class="st6" d="M11.5,121.5c-2.5-2.5-2.5-6.6,0-9.1c0.2-0.2,0.2-0.5,0.1-0.7c-0.2-0.2-0.5-0.2-0.7-0.1c0,0,0,0-0.1,0.1
	c-2.9,2.9-2.9,7.6,0,10.5c0.2,0.2,0.5,0.2,0.7,0.1C11.7,122.1,11.8,121.7,11.5,121.5C11.6,121.5,11.5,121.5,11.5,121.5"/>
<path class="st6" d="M9.6,123.4c-3.6-3.6-3.6-9.4,0-13c0,0,0,0,0,0c0.2-0.2,0.2-0.5,0-0.7c-0.2-0.2-0.5-0.2-0.7,0
	c-4,4-4,10.4,0,14.4c0.2,0.2,0.5,0.1,0.7-0.1C9.7,123.9,9.7,123.6,9.6,123.4"/>
<path class="st3" d="M496.5,136.8l1.2,9.8l-0.2-0.2l-0.2-0.2l-0.2-0.2l-0.2-0.2l-0.2-0.2l-0.2-0.2l-0.2-0.1l-0.2-0.1l-0.2-0.1
	l-0.2-0.1l-0.2-0.1l-0.2-0.1l-0.2-0.1l-0.2-0.1l-0.2-0.1l-0.2-0.1l-0.2-0.1h-0.2l-0.2,0h-0.2h-0.2h-0.2h-0.2h-1.3h-0.3h-0.3h-0.3
	l-0.3,0L496.5,136.8z M495.9,141.3l-4.3,14.9l-1.2-0.3l4.3-14.9L495.9,141.3z"/>
<path class="st2" d="M462.1,111.2c0.5,0,1-0.1,1.4-0.4c0.6-0.6,0.7-1.7,0-2.3c0,0,0,0,0,0c-0.4-0.3-0.9-0.4-1.4-0.4h-1.7v3.2
	L462.1,111.2z M464.1,113.8l-1.5-2c-0.2,0-0.3,0-0.5,0h-1.7v2h-0.7v-6.3h2.4c0.7,0,1.4,0.2,1.9,0.6c0.5,0.4,0.7,1,0.7,1.6
	c0,0.4-0.1,0.9-0.4,1.2c-0.3,0.4-0.6,0.6-1.1,0.8l1.5,2.2H464.1z"/>
<path class="st2" d="M474,113.5c-0.1,0.1-0.3,0.2-0.4,0.2c-0.2,0.1-0.4,0.1-0.6,0.1c-0.4,0-0.7-0.1-1-0.4c-0.3-0.3-0.4-0.6-0.4-1
	v-2.9h-0.9v-0.6h0.9v-1h0.6v1h1.5v0.5h-1.5v2.8c0,0.2,0.1,0.5,0.2,0.6c0.2,0.2,0.4,0.2,0.6,0.2c0.1,0,0.3,0,0.4-0.1
	c0.1,0,0.2-0.1,0.3-0.2L474,113.5z M467.6,113.4c0.3,0,0.7-0.1,0.9-0.3c0.3-0.2,0.5-0.4,0.6-0.7v-0.8h-1.5c-0.8,0-1.2,0.3-1.2,0.8
	c0,0.3,0.1,0.5,0.3,0.7C467,113.3,467.3,113.4,467.6,113.4 M467.8,109.1c0.5,0,1,0.1,1.4,0.5c0.4,0.4,0.5,0.9,0.5,1.4v3h-0.6v-0.9
	c-0.1,0.3-0.4,0.5-0.6,0.6c-0.3,0.1-0.7,0.2-1,0.2c-0.5,0-0.9-0.1-1.3-0.4c-0.6-0.5-0.6-1.3-0.2-1.8c0.1-0.1,0.1-0.1,0.2-0.2
	c0.4-0.3,0.9-0.4,1.4-0.4h1.5v-0.3c0-0.3-0.1-0.7-0.4-0.9c-0.3-0.2-0.6-0.3-1-0.3c-0.3,0-0.6,0.1-0.9,0.2c-0.3,0.1-0.5,0.2-0.7,0.4
	l-0.3-0.5c0.3-0.2,0.5-0.4,0.9-0.5C467.1,109.1,467.5,109,467.8,109.1z"/>
<path class="st2" d="M476.8,109.6c-0.4,0-0.8,0.1-1.2,0.4c-0.3,0.3-0.5,0.7-0.5,1.2h3.4c0-0.4-0.2-0.8-0.5-1.2
	C477.6,109.7,477.2,109.6,476.8,109.6 M479.1,111.7h-4c0,0.5,0.2,0.9,0.6,1.2c0.4,0.3,0.8,0.5,1.3,0.5c0.3,0,0.6-0.1,0.8-0.2
	c0.2-0.1,0.5-0.3,0.6-0.5l0.4,0.4c-0.2,0.3-0.5,0.5-0.8,0.6c-0.3,0.1-0.7,0.2-1,0.2c-0.5,0-0.9-0.1-1.3-0.3
	c-0.4-0.2-0.7-0.5-0.9-0.9c-0.4-0.8-0.4-1.7,0-2.5c0.2-0.4,0.5-0.7,0.8-0.9c0.7-0.4,1.6-0.4,2.4,0c0.3,0.2,0.6,0.5,0.8,0.8
	c0.2,0.4,0.3,0.8,0.3,1.3L479.1,111.7z"/>
<polygon class="st2" points="436.7,120.6 436.7,123 440,123 440,123.6 436.7,123.6 436.7,126.3 436,126.3 436,120 440.4,120 
	440.4,120.6 "/>
<path class="st2" d="M460.9,125.8c0.3,0,0.6-0.1,0.9-0.2c0.3-0.2,0.5-0.4,0.6-0.7c0.3-0.6,0.3-1.3,0-1.9c-0.1-0.3-0.4-0.5-0.6-0.7
	c-0.3-0.2-0.6-0.2-0.9-0.2c-0.3,0-0.6,0.1-0.9,0.2c-0.3,0.2-0.5,0.4-0.6,0.7c-0.3,0.6-0.3,1.3,0,1.9c0.1,0.3,0.4,0.5,0.6,0.7
	C460.3,125.7,460.6,125.8,460.9,125.8 M461,121.5c0.4,0,0.8,0.1,1.2,0.3c0.4,0.2,0.7,0.5,0.9,0.9c0.2,0.4,0.3,0.8,0.3,1.3
	c0,0.4-0.1,0.9-0.3,1.3c-0.2,0.4-0.5,0.7-0.9,0.9c-0.4,0.2-0.8,0.3-1.2,0.3c-0.4,0-0.7-0.1-1.1-0.2c-0.3-0.2-0.6-0.4-0.8-0.7v0.9
	h-0.6v-6.7h0.6v2.9c0.2-0.3,0.5-0.5,0.8-0.7C460.3,121.6,460.6,121.5,461,121.5z M454.3,125.8c0.6,0,1.2-0.3,1.5-0.9
	c0.3-0.6,0.3-1.3,0-1.9c-0.2-0.3-0.4-0.5-0.6-0.7c-0.6-0.3-1.2-0.3-1.8,0c-0.3,0.2-0.5,0.4-0.6,0.7c-0.3,0.6-0.3,1.3,0,1.9
	c0.1,0.3,0.4,0.5,0.6,0.7C453.7,125.7,454,125.8,454.3,125.8 M456.7,119.6v6.7h-0.6v-0.9c-0.2,0.3-0.4,0.6-0.8,0.7
	c-0.3,0.2-0.7,0.3-1.1,0.2c-0.4,0-0.8-0.1-1.2-0.3c-0.4-0.2-0.7-0.5-0.9-0.9c-0.2-0.4-0.3-0.8-0.3-1.3c0-0.4,0.1-0.9,0.3-1.3
	c0.2-0.4,0.5-0.7,0.9-0.9c0.4-0.2,0.8-0.3,1.2-0.3c0.3,0,0.7,0.1,1,0.2c0.3,0.2,0.6,0.4,0.8,0.7v-2.9H456.7z M448.8,122.1
	c-0.4,0-0.8,0.1-1.1,0.4c-0.3,0.3-0.5,0.7-0.5,1.2h3.4c0-0.4-0.2-0.8-0.5-1.2C449.7,122.2,449.2,122.1,448.8,122.1 M451.1,124.1h-4
	c0,0.5,0.2,0.9,0.6,1.2c0.4,0.3,0.8,0.5,1.3,0.5c0.3,0,0.6,0,0.8-0.2c0.2-0.1,0.5-0.3,0.6-0.5l0.4,0.4c-0.2,0.3-0.5,0.4-0.8,0.6
	c-0.8,0.3-1.6,0.3-2.3-0.1c-0.4-0.2-0.7-0.5-0.9-0.9c-0.4-0.8-0.4-1.7,0-2.5c0.2-0.4,0.5-0.7,0.8-0.9c0.4-0.2,0.8-0.3,1.2-0.3
	c0.4,0,0.8,0.1,1.2,0.3c0.3,0.2,0.6,0.5,0.8,0.8c0.2,0.4,0.3,0.8,0.3,1.3L451.1,124.1z M443.3,122.1c-0.4,0-0.8,0.1-1.1,0.4
	c-0.3,0.3-0.5,0.7-0.5,1.2h3.4c0-0.4-0.2-0.8-0.5-1.2C444.2,122.2,443.7,122.1,443.3,122.1 M445.6,124.1h-4c0,0.5,0.2,0.9,0.6,1.2
	c0.4,0.3,0.8,0.5,1.3,0.5c0.3,0,0.6,0,0.8-0.2c0.2-0.1,0.5-0.3,0.6-0.5l0.4,0.4c-0.2,0.3-0.5,0.4-0.8,0.6c-0.8,0.3-1.6,0.3-2.4-0.1
	c-0.4-0.2-0.7-0.5-0.9-0.9c-0.2-0.4-0.3-0.8-0.3-1.2c0-0.4,0.1-0.9,0.3-1.2c0.2-0.4,0.5-0.7,0.8-0.9c1.1-0.7,2.5-0.3,3.1,0.8
	c0,0,0,0.1,0,0.1c0.2,0.4,0.3,0.8,0.3,1.3L445.6,124.1z"/>
<path class="st2" d="M472,126.4c-0.4,0-0.9-0.1-1.3-0.3c-0.4-0.2-0.7-0.5-0.9-0.9c-0.4-0.8-0.4-1.7,0-2.5c0.2-0.4,0.5-0.7,0.9-0.9
	c0.4-0.2,0.8-0.3,1.3-0.3c0.4,0,0.8,0.1,1.1,0.2c0.3,0.2,0.6,0.4,0.8,0.7l-0.5,0.3c-0.1-0.2-0.3-0.4-0.6-0.5
	c-0.2-0.1-0.5-0.2-0.8-0.2c-0.3,0-0.6,0.1-0.9,0.2c-0.3,0.2-0.5,0.4-0.7,0.7c-0.2,0.3-0.2,0.7-0.2,1c0,0.3,0.1,0.7,0.2,1
	c0.1,0.3,0.4,0.5,0.7,0.7c0.3,0.2,0.6,0.2,0.9,0.2c0.3,0,0.5-0.1,0.8-0.2c0.2-0.1,0.4-0.3,0.6-0.5l0.5,0.3c-0.2,0.3-0.4,0.6-0.8,0.7
	C472.7,126.3,472.3,126.4,472,126.4 M466.1,125.9c0.3,0,0.7-0.1,0.9-0.3c0.3-0.2,0.5-0.4,0.6-0.7v-0.9h-1.5c-0.8,0-1.2,0.3-1.2,0.8
	c0,0.3,0.1,0.5,0.3,0.7C465.4,125.8,465.8,125.8,466.1,125.9 M466.3,121.5c0.5,0,1,0.1,1.4,0.5c0.4,0.4,0.5,0.9,0.5,1.4v3h-0.6v-0.7
	c-0.1,0.3-0.4,0.5-0.6,0.6c-0.3,0.1-0.7,0.2-1,0.2c-0.5,0-0.9-0.1-1.3-0.4c-0.6-0.5-0.6-1.3-0.2-1.8c0.1-0.1,0.1-0.1,0.2-0.2
	c0.4-0.3,0.9-0.4,1.4-0.4h1.5v-0.3c0-0.3-0.1-0.7-0.4-0.9c-0.3-0.2-0.6-0.3-1-0.3c-0.3,0-0.6,0.1-0.9,0.2c-0.3,0.1-0.5,0.2-0.7,0.4
	l-0.3-0.5c0.3-0.2,0.6-0.4,0.9-0.5C465.6,121.6,465.9,121.5,466.3,121.5L466.3,121.5z"/>
<polygon class="st2" points="476.8,123.9 475.7,124.9 475.7,126.3 475,126.3 475,119.6 475.7,119.6 475.7,124.2 478.5,121.6 
	479.3,121.6 477.3,123.5 479.5,126.3 478.7,126.3 "/>
<path class="st6" d="M495.3,116.8c1.4-1.4,1.4-3.7,0-5.2c0,0,0,0,0,0c-0.2-0.2-0.2-0.5,0-0.7c0.2-0.2,0.5-0.2,0.7,0
	c1.8,1.8,1.8,4.7,0,6.6c-0.2,0.2-0.5,0.2-0.7,0C495.1,117.3,495.1,117,495.3,116.8"/>
<path class="st6" d="M494.1,114.2c0-0.8-0.6-1.4-1.4-1.4s-1.4,0.6-1.4,1.4s0.6,1.4,1.4,1.4S494.1,115,494.1,114.2L494.1,114.2"/>
<path class="st6" d="M493.6,114.2c0-0.5-0.4-0.9-0.9-0.9c-0.5,0-0.9,0.4-0.9,0.9c0,0.5,0.4,0.9,0.9,0.9c0,0,0,0,0,0
	C493.2,115.2,493.6,114.8,493.6,114.2C493.6,114.3,493.6,114.3,493.6,114.2 M494.6,114.2c0,1-0.8,1.9-1.9,1.9s-1.9-0.8-1.9-1.9
	s0.8-1.9,1.9-1.9l0,0C493.8,112.4,494.6,113.2,494.6,114.2L494.6,114.2z"/>
<path class="st6" d="M497.3,118.8c2.5-2.5,2.5-6.6,0-9.1c0,0,0,0,0,0c-0.2-0.2-0.1-0.5,0.1-0.7c0.2-0.2,0.4-0.2,0.6,0
	c2.9,2.9,2.9,7.6,0,10.5c-0.2,0.2-0.5,0.2-0.7,0C497.1,119.3,497.1,119,497.3,118.8"/>
<path class="st6" d="M499.2,120.8c3.6-3.6,3.6-9.4,0-13c-0.2-0.2-0.2-0.5,0-0.7c0,0,0,0,0,0c0.2-0.2,0.5-0.2,0.7,0
	c4,4,4,10.4,0,14.4c-0.2,0.2-0.5,0.2-0.7,0C499,121.3,499,121,499.2,120.8C499.2,120.8,499.2,120.8,499.2,120.8"/>
<path class="st2" d="M221.8,205.8c0.5,0,1-0.1,1.4-0.4c0.3-0.3,0.5-0.7,0.5-1.2c0-0.5-0.2-0.9-0.5-1.2c-0.4-0.3-0.9-0.4-1.4-0.4
	h-1.7v3.2H221.8z M221.8,202.1c0.7,0,1.4,0.2,1.9,0.6c0.5,0.4,0.7,1,0.7,1.6c0,0.6-0.2,1.2-0.7,1.6c-0.5,0.4-1.2,0.6-1.9,0.6h-1.7v2
	h-0.7v-6.3L221.8,202.1z"/>
<path class="st2" d="M244.3,202.2c-0.2,0-0.5,0.1-0.6,0.2c-0.2,0.2-0.2,0.4-0.2,0.7v0.6h1.5v0.5h-1.5v4.2h-0.7v-4.2h-0.9v-0.5h0.9
	v-0.6c0-0.4,0.1-0.7,0.4-1c0.3-0.3,0.7-0.4,1.1-0.4c0.2,0,0.4,0,0.5,0.1c0.2,0,0.3,0.1,0.4,0.2l-0.2,0.5
	C244.8,202.3,244.5,202.2,244.3,202.2 M236.1,207.7c0.3,0,0.7-0.1,0.9-0.2c0.3-0.1,0.5-0.3,0.6-0.6c0.2-0.3,0.2-0.6,0.2-0.9
	c0-0.3-0.1-0.6-0.2-0.9c-0.2-0.3-0.4-0.5-0.6-0.6c-0.3-0.1-0.6-0.2-0.9-0.2c-0.3,0-0.6,0.1-0.9,0.2c-0.3,0.1-0.5,0.4-0.6,0.6
	c-0.2,0.3-0.2,0.6-0.2,0.9c0,0.3,0.1,0.6,0.2,0.9c0.1,0.3,0.4,0.5,0.6,0.6C235.4,207.6,235.8,207.7,236.1,207.7 M238.5,203.7v4.2
	c0.2,1.1-0.6,2.2-1.7,2.4c-0.2,0-0.4,0-0.7,0c-0.4,0-0.8-0.1-1.2-0.2c-0.4-0.1-0.7-0.3-1-0.5l0.3-0.5c0.2,0.2,0.5,0.4,0.8,0.5
	c0.3,0.1,0.7,0.2,1,0.2c0.5,0,1-0.1,1.3-0.4c0.3-0.4,0.5-0.8,0.4-1.3v-0.6c-0.2,0.3-0.5,0.5-0.8,0.7c-0.3,0.2-0.7,0.2-1.1,0.2
	c-0.4,0-0.8-0.1-1.2-0.3c-0.4-0.2-0.7-0.5-0.9-0.8c-0.2-0.4-0.3-0.8-0.3-1.2c0-0.4,0.1-0.8,0.3-1.2c0.2-0.3,0.5-0.6,0.9-0.8
	c0.4-0.2,0.8-0.3,1.2-0.3c0.4,0,0.8,0.1,1.1,0.2c0.3,0.2,0.6,0.4,0.8,0.7v-0.9L238.5,203.7z M230.4,203.7c0.5,0,1,0.2,1.4,0.5
	c0.4,0.4,0.6,1,0.5,1.5v2.8h-0.6v-2.7c0-0.4-0.1-0.8-0.4-1.1c-0.3-0.3-0.7-0.4-1.1-0.4c-0.4,0-0.9,0.1-1.2,0.5
	c-0.3,0.3-0.5,0.8-0.5,1.3v2.5h-0.6v-4.8h0.6v0.9c0.2-0.3,0.4-0.5,0.7-0.7C229.7,203.8,230.1,203.7,230.4,203.7 M225.9,202.7
	c-0.1,0-0.2,0-0.3-0.1c-0.2-0.2-0.2-0.4,0-0.6c0,0,0,0,0,0c0.1-0.1,0.2-0.1,0.3-0.1c0.1,0,0.2,0,0.3,0.1c0.1,0.1,0.1,0.2,0.1,0.3
	c0,0.1,0,0.2-0.1,0.3C226.2,202.7,226.1,202.7,225.9,202.7 M225.6,203.7h0.6v4.8h-0.6V203.7z"/>
<path class="st2" d="M267.9,204.6c0.1-0.3,0.4-0.6,0.7-0.7c0.3-0.2,0.7-0.3,1.1-0.2v0.6h-0.1c-0.4,0-0.9,0.1-1.2,0.5
	c-0.3,0.4-0.5,0.8-0.4,1.3v2.4h-0.6v-4.8h0.6V204.6z M263.7,204.2c-0.4,0-0.8,0.1-1.1,0.4c-0.3,0.3-0.5,0.7-0.5,1.2h3.4
	c0-0.4-0.2-0.8-0.5-1.2C264.5,204.3,264.1,204.1,263.7,204.2 M266,206.2h-4c0,0.5,0.2,0.9,0.6,1.2c0.4,0.3,0.8,0.5,1.3,0.5
	c0.3,0,0.6,0,0.8-0.2c0.2-0.1,0.5-0.3,0.6-0.5l0.4,0.4c-0.2,0.3-0.5,0.4-0.8,0.6c-0.3,0.1-0.7,0.2-1,0.2c-0.4,0-0.9-0.1-1.3-0.3
	c-0.4-0.2-0.7-0.5-0.9-0.9c-0.2-0.4-0.3-0.8-0.3-1.2c0-0.4,0.1-0.9,0.3-1.2c0.2-0.4,0.5-0.7,0.8-0.9c0.4-0.2,0.8-0.3,1.2-0.3
	c0.4,0,0.8,0.1,1.2,0.3c0.3,0.2,0.6,0.5,0.8,0.8c0.2,0.4,0.3,0.8,0.3,1.3L266,206.2z M258.7,208.4c-0.4,0-0.8-0.1-1.1-0.2
	c-0.3-0.1-0.6-0.2-0.8-0.4l0.3-0.5c0.2,0.2,0.5,0.3,0.8,0.4c0.3,0.1,0.6,0.2,0.9,0.2c0.3,0,0.7,0,1-0.2c0.2-0.1,0.3-0.3,0.3-0.6
	c0-0.2-0.1-0.3-0.2-0.4c-0.1-0.1-0.3-0.2-0.4-0.2c-0.2-0.1-0.5-0.1-0.7-0.1c-0.3-0.1-0.6-0.1-0.9-0.3c-0.2-0.1-0.4-0.2-0.6-0.4
	c-0.2-0.2-0.3-0.5-0.2-0.8c0-0.4,0.2-0.8,0.5-1c0.4-0.3,0.9-0.4,1.4-0.4c0.3,0,0.6,0,0.9,0.1c0.3,0.1,0.5,0.2,0.8,0.3l-0.3,0.5
	c-0.4-0.3-0.9-0.4-1.4-0.4c-0.3,0-0.6,0.1-0.9,0.2c-0.2,0.1-0.3,0.3-0.3,0.6c0,0.2,0.1,0.3,0.2,0.4c0.1,0.1,0.3,0.2,0.4,0.2
	c0.2,0.1,0.5,0.1,0.7,0.2c0.4,0.1,0.7,0.2,0.9,0.2c0.2,0.1,0.4,0.2,0.6,0.4c0.2,0.2,0.3,0.5,0.2,0.7c0,0.4-0.2,0.8-0.5,1
	C259.7,208.3,259.2,208.4,258.7,208.4 M252,204.5c0.1-0.3,0.4-0.6,0.7-0.7c0.3-0.2,0.7-0.3,1.1-0.2v0.6h-0.2c-0.4,0-0.9,0.1-1.2,0.5
	c-0.3,0.4-0.5,0.8-0.4,1.3v2.4h-0.6v-4.8h0.6L252,204.5z M247.7,207.8c0.3,0,0.6-0.1,0.9-0.2c0.3-0.2,0.5-0.4,0.6-0.7
	c0.3-0.6,0.3-1.3,0-1.9c-0.1-0.3-0.4-0.5-0.6-0.7c-0.3-0.2-0.6-0.2-0.9-0.2c-0.3,0-0.6,0.1-0.9,0.2c-0.3,0.2-0.5,0.4-0.6,0.7
	c-0.3,0.6-0.3,1.3,0,1.9c0.1,0.3,0.4,0.5,0.6,0.7C247.1,207.8,247.4,207.9,247.7,207.8 M247.7,208.4c-0.4,0-0.9-0.1-1.2-0.3
	c-0.4-0.2-0.7-0.5-0.9-0.9c-0.4-0.8-0.4-1.7,0-2.5c0.2-0.4,0.5-0.7,0.9-0.9c0.8-0.4,1.7-0.4,2.5,0c0.4,0.2,0.7,0.5,0.9,0.9
	c0.4,0.8,0.4,1.7,0,2.5c-0.2,0.4-0.5,0.7-0.9,0.9C248.6,208.3,248.1,208.4,247.7,208.4L247.7,208.4z"/>
<path class="st2" d="M280.4,208.4c-0.4,0-0.9-0.1-1.3-0.3c-0.4-0.2-0.7-0.5-0.9-0.9c-0.4-0.8-0.4-1.7,0-2.5c0.2-0.4,0.5-0.7,0.9-0.9
	c0.4-0.2,0.8-0.3,1.3-0.3c0.4,0,0.8,0.1,1.1,0.2c0.3,0.2,0.6,0.4,0.8,0.7l-0.5,0.3c-0.1-0.2-0.3-0.4-0.6-0.5
	c-0.2-0.1-0.5-0.2-0.8-0.2c-0.3,0-0.6,0.1-0.9,0.2c-0.3,0.2-0.5,0.4-0.6,0.7c-0.2,0.3-0.2,0.7-0.2,1c0,0.3,0.1,0.7,0.2,1
	c0.2,0.3,0.4,0.5,0.6,0.7c0.3,0.2,0.6,0.2,0.9,0.2c0.3,0,0.5-0.1,0.8-0.2c0.2-0.1,0.4-0.3,0.6-0.5l0.5,0.3c-0.2,0.3-0.4,0.6-0.8,0.7
	C281.1,208.4,280.8,208.5,280.4,208.4 M276.3,202.7c-0.1,0-0.3,0-0.3-0.1c-0.2-0.2-0.2-0.5,0-0.6c0.1-0.1,0.2-0.1,0.3-0.1
	c0.1,0,0.2,0,0.3,0.1c0.1,0.1,0.1,0.2,0.1,0.3C276.8,202.4,276.6,202.7,276.3,202.7 M276,203.7h0.6v4.8H276V203.7z M275.1,203.7
	l-2.1,4.8h-0.7l-2.1-4.8h0.7l1.8,4l1.8-4H275.1z"/>
<path class="st2" d="M285.3,204.2c-0.4,0-0.8,0.1-1.1,0.4c-0.3,0.3-0.5,0.7-0.5,1.2h3.4c0-0.4-0.2-0.8-0.5-1.2
	C286.1,204.3,285.7,204.1,285.3,204.2 M287.6,206.2h-4c0,0.5,0.2,0.9,0.6,1.2c0.4,0.3,0.8,0.5,1.3,0.5c0.3,0,0.6-0.1,0.8-0.2
	c0.2-0.1,0.5-0.3,0.6-0.5l0.4,0.4c-0.2,0.3-0.5,0.4-0.8,0.6c-0.3,0.1-0.7,0.2-1,0.2c-0.5,0-0.9-0.1-1.3-0.3
	c-0.4-0.2-0.7-0.5-0.9-0.9c-0.4-0.8-0.4-1.7,0-2.5c0.2-0.4,0.5-0.7,0.8-0.9c1.1-0.7,2.5-0.3,3.2,0.8c0,0,0,0,0,0.1
	c0.2,0.4,0.3,0.8,0.3,1.3L287.6,206.2z"/>
<path class="st2" d="M262.1,215.1h-2.3v-0.6h5.1v0.6h-2.2v5.8H262L262.1,215.1z M259.2,220.3v0.6h-4.4v-6.3h4.3v0.6h-3.7v2.3h3.3
	v0.6h-3.3v2.3H259.2z M251.1,220.6c-0.1,0.1-0.3,0.2-0.5,0.2c-0.2,0.1-0.4,0.1-0.6,0.1c-0.4,0-0.7-0.1-1-0.4c-0.2-0.3-0.4-0.6-0.4-1
	v-2.9h-0.9v-0.5h0.9v-1h0.6v1h1.4v0.5h-1.5v2.8c0,0.2,0.1,0.5,0.2,0.7c0.2,0.2,0.4,0.2,0.6,0.2c0.1,0,0.3,0,0.4-0.1
	c0.1,0,0.2-0.1,0.3-0.2L251.1,220.6z M245,216.6c-0.4,0-0.9,0.2-1.2,0.5c-0.3,0.3-0.5,0.7-0.5,1.2h3.4c0-0.4-0.2-0.8-0.5-1.2
	C245.8,216.8,245.4,216.6,245,216.6 M247.2,218.7h-4c0,0.5,0.2,0.9,0.6,1.2c0.4,0.3,0.8,0.5,1.3,0.5c0.3,0,0.6,0,0.8-0.2
	c0.3-0.1,0.5-0.3,0.6-0.5l0.4,0.4c-0.2,0.3-0.5,0.4-0.8,0.6c-0.8,0.3-1.6,0.3-2.3-0.1c-0.4-0.2-0.7-0.5-0.9-0.9
	c-0.4-0.8-0.4-1.7,0-2.5c0.2-0.4,0.5-0.7,0.8-0.9c0.7-0.4,1.6-0.4,2.4,0c0.3,0.2,0.6,0.5,0.8,0.8c0.2,0.4,0.3,0.8,0.3,1.3
	L247.2,218.7z M240.7,217.7h0.6v2.4c-0.3,0.3-0.7,0.5-1,0.6c-0.4,0.1-0.8,0.2-1.3,0.2c-0.6,0-1.2-0.1-1.7-0.4
	c-0.5-0.3-0.9-0.7-1.2-1.2c-0.3-0.5-0.4-1.1-0.4-1.7c0-0.6,0.1-1.2,0.4-1.7c0.3-0.5,0.7-0.9,1.2-1.1c0.5-0.3,1.1-0.4,1.7-0.4
	c0.5,0,0.9,0.1,1.3,0.2c0.4,0.1,0.7,0.4,1,0.7l-0.4,0.4c-0.5-0.5-1.2-0.8-1.9-0.7c-0.5,0-1,0.1-1.4,0.3c-0.4,0.2-0.8,0.5-1,0.9
	c-0.2,0.4-0.4,0.9-0.4,1.3c0,0.5,0.1,0.9,0.4,1.3c0.2,0.4,0.6,0.7,1,0.9c0.4,0.2,0.9,0.4,1.4,0.3c0.6,0,1.2-0.2,1.7-0.5L240.7,217.7
	z"/>
<path class="st2" d="M269.4,218.6l-1.5-3.4l-1.5,3.4H269.4z M269.7,219.2h-3.5l-0.8,1.7h-0.7l2.9-6.3h0.7l2.9,6.3h-0.7L269.7,219.2z
	"/>
<path class="st8" d="M254.3,144.4L254.3,144.4v-0.3V144v-0.1v-0.1v-0.1v-0.1v-0.1v-0.1l0-0.1l0.1-0.1l0.1-0.1l0.1-0.1l0.3,0l0.1-0.1
	l0.1-0.1l0.1-0.1l0.1-0.1l0.1-0.1h0.1l0.1,0h0.1h0.1h0.1h0.1h0.1h0.1h0.1h0.6h0.1h0.1h0.1h0.1h0.1h0.1h0.1l0.1,0h0.1l0.1,0.1
	l0.1,0.1l0.1,0.1l0.1,0.1l0.1,0.1l0.1,0.1l0.1,0.1l0,0.1l0.1,0.1l0,0.1v0.1v0.1v0.1v0.1v0.1v0.1v0.1v0.1v0.4v0.1v0.1v0.1v0.1v0.1
	v0.1v0.1v0.1l0,0.1l-0.1,0.1l0,0.1l-0.1,0.1l-0.1,0.1l-0.1,0.1l-0.1,0.1l-0.1,0.1l-0.1,0.1l-0.1,0.1l-0.1,0h-0.1l-0.1,0h-0.1H257
	h-0.1h-0.1h-0.1h-0.1H256h-0.1h-0.1h-0.1h-0.1h-0.1h-0.1l-0.1,0h-0.1l-0.1,0l-0.1-0.1l-0.1-0.1l-0.1-0.1l-0.1-0.1l-0.1-0.1l-0.1-0.1
	l-0.1-0.1l-0.1-0.1l-0.1-0.1l0-0.1v-0.1v-0.1v-0.1v-0.1V145v-0.1v-0.1v-0.3L254.3,144.4z M256.8,144.4v27.1h-1v-27.1H256.8z
	 M254.3,171.5v-0.3v-0.1V171v-0.1v-0.1v-0.1v-0.1v-0.1l0-0.1l0.1-0.1l0.1-0.1l0.1-0.1l0.3-0.1l0.1-0.1l0.1-0.1l0.1-0.1l0.1-0.1
	l0.1-0.1l0.1,0h0.1l0.1,0h0.1h0.1h0.1h0.1h0.1h0.1h0.6h0.1h0.1h0.1h0.1h0.1h0.1l0.1,0h0.1l0.1,0l0.1,0.1l0.1,0.1l0.1,0.1l0.1,0.1
	l0.1,0.1l0.1,0.1l0.1,0.1l0,0.1l0.1,0.1l0,0.1v0.1v0.1v0.1v0.1v0.1v0.1v0.1v0.1v0.4v0.1v0.1v0.1v0.1v0.1v0.1v0.1v0.1l0,0.1l-0.1,0.1
	l0,0.1l-0.1,0.1l-0.1,0.1l-0.1,0.1l-0.1,0.1l-0.1,0.1l-0.1,0.1l-0.1,0.1h-0.1l-0.1,0h-0.1h-0.1H257h-0.1h-0.1h-0.1h-0.1H256h-0.1
	h-0.1h-0.1h-0.1h-0.1h-0.1h-0.1l-0.1,0h-0.1l-0.1-0.1l-0.1-0.1l-0.1-0.1l-0.1-0.1l-0.1-0.1l-0.1-0.1l-0.1-0.1l-0.1-0.1l-0.1-0.1
	l0-0.1v-0.1v-0.1v-0.1v-0.1V172v-0.1v-0.1v-0.3L254.3,171.5z"/>
<path class="st9" d="M254.3,144.4L254.3,144.4v-0.3V144v-0.1v-0.1v-0.1v-0.1v-0.1v-0.1l0-0.1l0.1-0.1l0.1-0.1l0.1-0.1l0.3,0l0.1-0.1
	l0.1-0.1l0.1-0.1l0.1-0.1l0.1-0.1h0.1l0.1,0h0.1h0.1h0.1h0.1h0.1h0.1h0.1h0.6h0.1h0.1h0.1h0.1h0.1h0.1h0.1l0.1,0h0.1l0.1,0.1
	l0.1,0.1l0.1,0.1l0.1,0.1l0.1,0.1l0.1,0.1l0.1,0.1l0,0.1l0.1,0.1l0,0.1v0.1v0.1v0.1v0.1v0.1v0.1v0.1v0.1v0.4v0.1v0.1v0.1v0.1v0.1
	v0.1v0.1v0.1l0,0.1l-0.1,0.1l0,0.1l-0.1,0.1l-0.1,0.1l-0.1,0.1l-0.1,0.1l-0.1,0.1l-0.1,0.1l-0.1,0.1l-0.1,0h-0.1l-0.1,0h-0.1H257
	h-0.1h-0.1h-0.1h-0.1H256h-0.1h-0.1h-0.1h-0.1h-0.1h-0.1l-0.1,0h-0.1l-0.1,0l-0.1-0.1l-0.1-0.1l-0.1-0.1l-0.1-0.1l-0.1-0.1l-0.1-0.1
	l-0.1-0.1l-0.1-0.1l-0.1-0.1l0-0.1v-0.1v-0.1v-0.1v-0.1V145v-0.1v-0.1v-0.3L254.3,144.4z M256.8,144.4v27.1h-1v-27.1H256.8z
	 M254.3,171.5v-0.3v-0.1V171v-0.1v-0.1v-0.1v-0.1v-0.1l0-0.1l0.1-0.1l0.1-0.1l0.1-0.1l0.3-0.1l0.1-0.1l0.1-0.1l0.1-0.1l0.1-0.1
	l0.1-0.1l0.1,0h0.1l0.1,0h0.1h0.1h0.1h0.1h0.1h0.1h0.6h0.1h0.1h0.1h0.1h0.1h0.1l0.1,0h0.1l0.1,0l0.1,0.1l0.1,0.1l0.1,0.1l0.1,0.1
	l0.1,0.1l0.1,0.1l0.1,0.1l0,0.1l0.1,0.1l0,0.1v0.1v0.1v0.1v0.1v0.1v0.1v0.1v0.1v0.4v0.1v0.1v0.1v0.1v0.1v0.1v0.1v0.1l0,0.1l-0.1,0.1
	l0,0.1l-0.1,0.1l-0.1,0.1l-0.1,0.1l-0.1,0.1l-0.1,0.1l-0.1,0.1l-0.1,0.1h-0.1l-0.1,0h-0.1h-0.1H257h-0.1h-0.1h-0.1h-0.1H256h-0.1
	h-0.1h-0.1h-0.1h-0.1h-0.1h-0.1l-0.1,0h-0.1l-0.1-0.1l-0.1-0.1l-0.1-0.1l-0.1-0.1l-0.1-0.1l-0.1-0.1l-0.1-0.1l-0.1-0.1l-0.1-0.1
	l0-0.1v-0.1v-0.1v-0.1v-0.1V172v-0.1v-0.1v-0.3L254.3,171.5z"/>
<path class="st6" d="M258.9,181.4c-1.4,1.4-3.7,1.4-5.2,0c-0.2-0.2-0.5-0.1-0.7,0.1c-0.2,0.2-0.2,0.4,0,0.6c1.8,1.8,4.7,1.8,6.6,0
	c0.2-0.2,0.2-0.5,0.1-0.7C259.5,181.1,259.2,181.1,258.9,181.4C259,181.3,258.9,181.3,258.9,181.4"/>
<path class="st6" d="M256.3,180.1c-0.8,0-1.4-0.6-1.4-1.4s0.6-1.4,1.4-1.4c0.8,0,1.4,0.6,1.4,1.4S257.1,180.1,256.3,180.1
	L256.3,180.1"/>
<path class="st6" d="M256.3,179.7c-0.5,0-0.9-0.4-0.9-0.9s0.4-0.9,0.9-0.9c0.5,0,0.9,0.4,0.9,0.9S256.8,179.7,256.3,179.7
	L256.3,179.7 M256.3,180.7c1,0,1.9-0.8,1.9-1.9s-0.8-1.9-1.9-1.9c-1,0-1.9,0.8-1.9,1.9l0,0C254.5,179.8,255.3,180.6,256.3,180.7
	L256.3,180.7z"/>
<path class="st6" d="M260.9,183.3c-2.5,2.5-6.6,2.5-9.1,0c0,0,0,0,0,0c-0.2-0.2-0.5-0.1-0.7,0.1c-0.2,0.2-0.2,0.4,0,0.6
	c2.9,2.9,7.6,2.9,10.5,0c0.2-0.2,0.2-0.5,0-0.7C261.4,183.1,261.1,183.1,260.9,183.3"/>
<path class="st6" d="M262.8,185.3c-3.6,3.6-9.4,3.6-13,0c-0.2-0.2-0.5-0.1-0.7,0.1c-0.2,0.2-0.2,0.4,0,0.6c4,4,10.4,4,14.4,0
	c0.2-0.2,0.1-0.5-0.1-0.7C263.2,185.1,263,185.1,262.8,185.3"/>
<path class="st5" d="M112,11.6c2.5-2.5,6.6-2.5,9.1,0c0,0,0,0,0,0c0.2,0.2,0.5,0.2,0.7,0c0.2-0.2,0.2-0.5,0-0.7
	c-2.9-2.9-7.6-2.9-10.5,0c-0.2,0.2-0.2,0.5,0,0.7C111.5,11.8,111.8,11.8,112,11.6"/>
<path class="st5" d="M110.1,9.6c3.6-3.6,9.4-3.6,13,0c0,0,0,0,0,0c0.2,0.2,0.5,0.2,0.7,0.1c0.2-0.2,0.2-0.5,0.1-0.7c0,0,0,0-0.1-0.1
	c-4-4-10.4-4-14.4,0c-0.2,0.2-0.2,0.5-0.1,0.7C109.5,9.8,109.8,9.8,110.1,9.6C110,9.7,110.1,9.6,110.1,9.6"/>
<path class="st5" d="M397.2,11.5c2.5-2.5,6.6-2.5,9.1,0c0.2,0.2,0.5,0.2,0.7,0c0,0,0,0,0,0c0.2-0.2,0.2-0.5,0-0.7
	c-2.9-2.9-7.6-2.9-10.5,0c-0.2,0.2-0.2,0.5,0,0.7C396.7,11.7,397,11.7,397.2,11.5C397.2,11.5,397.2,11.5,397.2,11.5"/>
<path class="st5" d="M395.3,9.5c3.6-3.6,9.4-3.6,13,0c0,0,0,0,0,0c0.2,0.2,0.5,0.2,0.7,0c0.2-0.2,0.2-0.5,0-0.7c0,0,0,0,0,0
	c-4-4-10.4-4-14.4,0c0,0,0,0,0,0c-0.2,0.2-0.2,0.5-0.1,0.7C394.7,9.7,395,9.8,395.3,9.5C395.3,9.6,395.3,9.6,395.3,9.5"/>
</svg>
